<svg width="105" height="26" viewBox="0 0 105 26" fill="none" xmlns="http://www.w3.org/2000/svg">
<g clip-path="url(#clip0_1_392)">
<path fill-rule="evenodd" clip-rule="evenodd" d="M15.8904 25.2031L12.2295 17.8813L8.56855 25.2031H0.0263672L12.2295 0.796875L24.4326 25.2031H15.8904Z" fill="black"/>
<path fill-rule="evenodd" clip-rule="evenodd" d="M20.7715 0.796875H28.0934L24.4324 8.11875L20.7715 0.796875Z" fill="black"/>
<path d="M34.666 7.70425H36.6919L35.9471 6.04578C35.9041 5.93985 35.8594 5.8182 35.813 5.68082C35.7667 5.54344 35.7203 5.39034 35.674 5.22152C35.6343 5.38041 35.5921 5.52855 35.5474 5.66592C35.5027 5.8033 35.4572 5.92992 35.4108 6.04578L34.666 7.70425ZM37.9333 10.5594L37.109 8.68741H34.229L33.3849 10.5594H32.1436L35.6641 3.00195L39.1796 10.5594H37.9333ZM48.9103 5.05766C48.5759 4.77297 48.2226 4.55945 47.8501 4.41711C47.4777 4.27477 47.0863 4.2036 46.6758 4.2036C45.8813 4.2036 45.235 4.45849 44.7368 4.96828C44.2386 5.47807 43.9895 6.13847 43.9895 6.9495C43.9895 7.73404 44.232 8.3812 44.7169 8.89099C45.2019 9.40078 45.8135 9.65567 46.5517 9.65567C46.982 9.65567 47.3917 9.57954 47.7806 9.42726C48.1696 9.27499 48.5428 9.04492 48.9003 8.73706V10.0728C48.5826 10.3012 48.2366 10.4717 47.8626 10.5842C47.4885 10.6968 47.083 10.753 46.646 10.753C46.0899 10.753 45.576 10.662 45.1042 10.4799C44.6325 10.2979 44.2179 10.0297 43.8604 9.67554C43.5062 9.32795 43.2339 8.91831 43.0436 8.44658C42.8532 7.97486 42.7581 7.47253 42.7581 6.93957C42.7581 6.4066 42.8532 5.90592 43.0436 5.43751C43.2339 4.9691 43.5095 4.5578 43.8703 4.2036C44.2312 3.84608 44.6449 3.57547 45.1117 3.39174C45.5784 3.20802 46.0833 3.11616 46.6262 3.11616C47.0532 3.11616 47.4604 3.17823 47.8477 3.30236C48.235 3.4265 48.6107 3.61436 48.9748 3.86594L48.9103 5.05766ZM53.7351 3.28995H54.9019V7.70425C54.9019 8.35969 55.0534 8.8521 55.3563 9.18147C55.6592 9.51085 56.1118 9.67554 56.7143 9.67554C57.3135 9.67554 57.7645 9.51085 58.0674 9.18147C58.3703 8.8521 58.5218 8.35969 58.5218 7.70425V3.28995H59.7035V7.81349C59.7035 8.79665 59.4553 9.53236 58.9587 10.0206C58.4622 10.5089 57.714 10.753 56.7143 10.753C55.7146 10.753 54.9681 10.5097 54.4749 10.0231C53.9817 9.5365 53.7351 8.79996 53.7351 7.81349V3.28995ZM64.7418 10.5594V3.28995H65.9236V10.5594H64.7418ZM73.3602 4.29297V10.5594H72.1784V4.29297H70.2469V3.28995H75.2818V4.29297H73.3602ZM81.1394 10.5594V7.23253L78.6915 3.28995H79.9328L81.4572 5.75779C81.4936 5.82068 81.5392 5.90344 81.5938 6.00606C81.6484 6.10868 81.7039 6.21957 81.7601 6.33875C81.8065 6.22288 81.8553 6.11364 81.9066 6.01102C81.9579 5.9084 82.0117 5.81406 82.068 5.72799L83.6321 3.28995H84.8139L82.3113 7.23253V10.5594H81.1394Z" fill="black"/>
<path d="M35.3333 23.859L32.0908 16.3066H33.3173L34.946 20.1796C35.042 20.4047 35.1214 20.6124 35.1843 20.8028C35.2472 20.9931 35.2969 21.1744 35.3333 21.3465C35.3763 21.1644 35.4309 20.9757 35.4971 20.7804C35.5633 20.5851 35.6411 20.3849 35.7305 20.1796L37.3542 16.3066H38.5757L35.3333 23.859ZM42.7004 23.576V16.3066H46.7571V17.3096H43.8821V19.1319H46.7571V20.1697H43.8821V22.5183H46.7571V23.576H42.7004ZM51.5025 23.576V16.0186L56.1204 20.4626C56.2461 20.5884 56.3736 20.7225 56.5027 20.8648C56.6318 21.0072 56.7675 21.1677 56.9099 21.3465V16.3066H58.0023V23.859L53.29 19.3355C53.1642 19.213 53.0426 19.0839 52.9251 18.9482C52.8076 18.8125 52.6958 18.6701 52.5899 18.5211V23.576H51.5025ZM65.4091 17.3096V23.576H64.2273V17.3096H62.2957V16.3066H67.3307V17.3096H65.4091ZM71.5944 16.3066H72.7613V20.7208C72.7613 21.3763 72.9127 21.8687 73.2156 22.1981C73.5185 22.5275 73.9712 22.6921 74.5737 22.6921C75.1728 22.6921 75.6239 22.5275 75.9268 22.1981C76.2297 21.8687 76.3811 21.3763 76.3811 20.7208V16.3066H77.5629V20.8301C77.5629 21.8133 77.3146 22.549 76.8181 23.0372C76.3215 23.5255 75.5734 23.7696 74.5737 23.7696C73.574 23.7696 72.8275 23.5263 72.3343 23.0397C71.841 22.5531 71.5944 21.8166 71.5944 20.8301V16.3066ZM83.7631 19.405H83.9766C84.6023 19.405 85.0177 19.3322 85.2229 19.1865C85.4282 19.0409 85.5308 18.7827 85.5308 18.4119C85.5308 18.0114 85.4207 17.7292 85.2006 17.5653C84.9805 17.4014 84.5725 17.3195 83.9766 17.3195H83.7631V19.405ZM83.6886 20.3236V23.576H82.5813V16.3066H84.2298C84.7132 16.3066 85.088 16.338 85.3545 16.4009C85.621 16.4638 85.8486 16.5681 86.0373 16.7137C86.2624 16.8892 86.4362 17.1159 86.5586 17.394C86.6811 17.6721 86.7424 17.9766 86.7424 18.3076C86.7424 18.8903 86.6017 19.3462 86.3203 19.6756C86.0389 20.005 85.6235 20.2028 85.074 20.269L87.5766 23.576H86.2409L83.8227 20.3236H83.6886ZM91.6665 23.576V16.3066H95.7232V17.3096H92.8482V19.1319H95.7232V20.1697H92.8482V22.5183H95.7232V23.576H91.6665ZM100.051 22.1211L100.995 21.6841C101.084 22.0086 101.248 22.256 101.486 22.4265C101.725 22.597 102.029 22.6822 102.4 22.6822C102.751 22.6822 103.03 22.5846 103.237 22.3892C103.444 22.1939 103.547 21.9324 103.547 21.6047C103.547 21.1777 103.193 20.797 102.485 20.4626C102.385 20.413 102.309 20.3766 102.256 20.3534C101.455 19.9628 100.921 19.6094 100.655 19.2933C100.388 18.9771 100.255 18.5907 100.255 18.1338C100.255 17.5413 100.456 17.0613 100.858 16.6939C101.261 16.3264 101.788 16.1427 102.44 16.1427C102.976 16.1427 103.425 16.2461 103.786 16.453C104.146 16.6599 104.396 16.957 104.535 17.3443L103.612 17.821C103.466 17.5926 103.306 17.4254 103.133 17.3195C102.959 17.2136 102.759 17.1606 102.534 17.1606C102.216 17.1606 101.964 17.2434 101.777 17.4089C101.59 17.5744 101.496 17.7962 101.496 18.0743C101.496 18.5112 101.907 18.9184 102.728 19.2958C102.791 19.3256 102.84 19.3487 102.877 19.3653C103.595 19.6963 104.088 20.0199 104.357 20.336C104.625 20.6522 104.759 21.0469 104.759 21.5203C104.759 22.2088 104.542 22.7559 104.108 23.1614C103.675 23.5669 103.089 23.7696 102.35 23.7696C101.731 23.7696 101.224 23.6273 100.829 23.3426C100.433 23.0579 100.174 22.6508 100.051 22.1211Z" fill="black"/>
</g>
<defs>
<clipPath id="clip0_1_392">
<rect width="104.947" height="24.4062" fill="white" transform="translate(0.0263672 0.796875)"/>
</clipPath>
</defs>
</svg>
