<svg width="23" height="22" viewBox="0 0 23 22" fill="none" xmlns="http://www.w3.org/2000/svg">
<path d="M16.2454 11.5375C16.2369 10.0979 16.8892 9.01297 18.2063 8.21296C17.4696 7.15754 16.3551 6.57707 14.886 6.46519C13.495 6.35543 11.973 7.27575 11.4158 7.27575C10.8269 7.27575 9.48015 6.50319 8.42051 6.50319C6.23369 6.53696 3.90967 8.24673 3.90967 11.7254C3.90967 12.7534 4.09753 13.8151 4.47326 14.9085C4.97564 16.3481 6.78673 19.8753 8.67592 19.8183C9.66379 19.7951 10.3625 19.1175 11.648 19.1175C12.8955 19.1175 13.5414 19.8183 14.6432 19.8183C16.5493 19.7909 18.1873 16.5845 18.6644 15.1407C16.1082 13.9354 16.2454 11.6114 16.2454 11.5375ZM14.0269 5.09948C15.0971 3.82876 15 2.67203 14.9683 2.2562C14.0227 2.31108 12.9292 2.9 12.3066 3.62401C11.6205 4.4008 11.2174 5.36123 11.3039 6.44408C12.3256 6.52218 13.2585 5.99659 14.0269 5.09948Z" fill="white"/>
</svg>
