<svg width="19" height="19" viewBox="0 0 19 19" fill="none" xmlns="http://www.w3.org/2000/svg">
<g clip-path="url(#clip0_4_20)">
<path d="M10.7021 9.14213L13.3476 6.84034C8.51561 4.35069 1.37551 0.698171 0.971995 0.645935L0.939697 0.648817L10.7021 9.14213Z" fill="#08B059"/>
<path d="M0.354143 1.15833L0.35083 1.18624V18.1178L0.353936 18.1446L10.1164 9.65146L0.354143 1.15833Z" fill="#1BB899"/>
<path d="M10.7034 10.1622L0.941406 18.6553L0.972048 18.6584C1.37743 18.6022 8.51628 14.9514 13.3477 12.4629L10.7034 10.1622Z" fill="#F04F3E"/>
<path d="M17.742 9.11165C17.742 9.11165 16.2157 8.31947 14.0847 7.22037L11.2891 9.65274L14.0834 12.0839C16.2151 10.9846 17.742 10.1924 17.742 10.1924C18.0747 10.0404 18.3631 9.95048 18.3631 9.65202C18.3631 9.35374 18.0352 9.25125 17.742 9.11165Z" fill="#F99C1C"/>
</g>
<defs>
<clipPath id="clip0_4_20">
<rect width="18.0124" height="18.0124" fill="white" transform="translate(0.35083 0.645966)"/>
</clipPath>
</defs>
</svg>
