<svg width="120" height="30" viewBox="0 0 120 30" fill="none" xmlns="http://www.w3.org/2000/svg">
<g clip-path="url(#clip0_1_407)">
<mask id="mask0_1_407" style="mask-type:luminance" maskUnits="userSpaceOnUse" x="0" y="3" width="35" height="24">
<path d="M34.7944 3.05981H0.000976562V26.9818H34.7944V3.05981Z" fill="white"/>
</mask>
<g mask="url(#mask0_1_407)">
<path d="M15.1829 3.05981H34.7945L29.3976 18.2058C28.8662 19.6924 27.4573 20.6894 25.8752 20.6894H11.565C8.97998 20.6894 7.17702 18.1282 8.04268 15.6984L11.6605 5.54336C12.1978 4.05084 13.6068 3.05981 15.1829 3.05981Z" fill="#B82BF9"/>
<path d="M19.6126 26.9819H0.000976562L5.3979 11.8358C5.92924 10.3493 7.33817 9.35229 8.92023 9.35229H23.2304C25.8155 9.35229 27.6184 11.9134 26.7528 14.3433L23.1349 24.4983C22.6036 25.9849 21.1947 26.9819 19.6126 26.9819Z" fill="#FFBF33"/>
<mask id="mask1_1_407" style="mask-type:luminance" maskUnits="userSpaceOnUse" x="7" y="11" width="14" height="15">
<path d="M20.2991 11.418H7.76196V25.1491H20.2991V11.418Z" fill="white"/>
</mask>
<g mask="url(#mask1_1_407)">
<path d="M20.2864 16.8101C20.2754 16.8746 20.2579 16.9381 20.2343 17.0001C20.1518 17.2227 20.0016 17.4264 19.8575 17.5994C19.6247 17.8794 19.4655 18.2453 19.1707 18.4659C19.1567 18.4761 19.1437 18.4864 19.1291 18.4961C19.0676 18.5407 19.0035 18.5827 18.9399 18.6241C18.7107 18.7741 18.4794 18.9204 18.3292 19.1738C18.1305 19.5091 18.2071 19.9753 18.2892 20.3981C18.3247 20.5793 18.3608 20.7524 18.3763 20.9038C18.4418 21.5324 18.2311 21.7606 17.7681 22.145C17.653 22.2407 17.6114 22.3569 17.5989 22.4818C17.5689 22.7628 17.683 23.0874 17.4232 23.3171C17.3036 23.4231 17.1955 23.4953 17.0983 23.5976C17.0508 23.6473 17.0053 23.7051 16.9617 23.7768C16.8846 23.9063 16.833 24.0486 16.774 24.1863C16.7379 24.2712 16.6984 24.3552 16.6488 24.4325C16.6208 24.477 16.5888 24.519 16.5532 24.5594C16.4686 24.6577 16.3655 24.7442 16.2534 24.8153C16.0532 24.9423 15.8214 25.0216 15.6031 25.0359C15.2983 25.0554 14.8919 25.2714 14.6196 25.0487C14.5089 24.9581 14.4563 24.8225 14.4028 24.6986C14.3652 24.6106 14.3182 24.3163 13.9398 23.9293C13.7 23.6857 13.7826 23.4128 13.7566 23.0945C13.7441 22.9446 13.6995 22.8135 13.6405 22.6912C13.6019 22.6103 13.5568 22.533 13.5118 22.4573C13.4022 22.2735 13.2881 22.0939 13.2435 21.8784C13.2195 21.7648 13.2159 21.6409 13.2415 21.5012C13.3171 21.0957 13.5364 20.738 13.5564 20.3598C13.5654 20.1878 13.5333 20.0112 13.4282 19.8238C13.2535 19.5137 12.9622 19.3079 12.8311 18.9629C12.7244 18.6835 12.7835 18.2157 12.5322 18.0109C12.2759 17.8026 11.915 18.0252 11.6247 17.8C11.3003 17.5492 11.0926 17.4945 10.7097 17.7018C10.3177 17.9147 10.0529 17.8538 9.66448 17.799C9.39219 17.7606 9.16091 17.7658 8.9722 17.6746C8.8571 17.6188 8.75847 17.5272 8.67686 17.3675C8.66784 17.3506 8.65937 17.3322 8.65083 17.3138C8.57626 17.1485 8.46761 17.022 8.35448 16.9043C8.17281 16.7134 7.98009 16.5419 7.90248 16.2558C7.7964 15.8653 7.68977 15.5326 7.8244 15.1451C7.8324 15.1206 7.84195 15.096 7.85245 15.0709C7.98911 14.7443 7.98057 14.3507 8.14427 14.0436C8.17729 13.9817 8.21687 13.9254 8.26039 13.8732C8.43107 13.6664 8.66587 13.5211 8.83304 13.3092C9.01823 13.0742 9.18843 12.828 9.37213 12.5921C9.4307 12.5168 9.49028 12.4426 9.55237 12.3699C9.59344 12.3218 9.63643 12.2742 9.67947 12.2277C9.80412 12.0946 9.93427 11.9958 10.0784 11.8939C10.2847 11.7475 10.4023 11.7746 10.6576 11.7869C10.9544 11.8018 11.2483 11.7762 11.5381 11.7046C11.8059 11.6385 12.0521 11.4681 12.322 11.4302C12.6703 11.381 12.9987 11.465 13.0593 11.8514C13.0818 11.9963 13.0003 12.2072 13.1248 12.3192C13.2795 12.458 13.6405 12.3705 13.8412 12.4866C13.9122 12.5276 13.9924 12.6013 14.078 12.6642C14.163 12.7277 14.2531 12.7804 14.3423 12.7804C14.574 12.7794 14.7437 12.4723 14.9419 12.3802C15.3449 12.1918 15.6617 12.5532 16.0181 12.6863C16.1693 12.743 16.386 12.8168 16.5462 12.8234C16.6874 12.8291 16.813 12.761 16.9487 12.7533C17.216 12.738 17.4512 12.889 17.4688 13.1945C17.4838 13.4622 17.3666 13.6086 17.4873 13.8768C17.5233 13.9577 17.5669 14.034 17.6119 14.1092C17.6845 14.2299 17.7611 14.3482 17.8196 14.4813C17.9768 14.8416 18.095 15.3145 18.3677 15.5976C18.3873 15.6176 18.4073 15.636 18.4283 15.6544C18.5445 15.7527 18.6786 15.8197 18.7827 15.9339C18.7898 15.941 18.7963 15.9492 18.8028 15.9569C18.9009 16.0757 18.9685 16.2338 19.061 16.351C19.0726 16.3654 19.0836 16.3782 19.0951 16.3905C19.2758 16.5885 19.4565 16.547 19.7198 16.4698C19.9726 16.3955 20.2789 16.2558 20.2989 16.6126C20.3014 16.6796 20.2974 16.7457 20.2864 16.8101Z" fill="#B82BF9"/>
<path d="M19.0721 22.1989C19.1467 22.4252 18.8974 22.6109 18.8869 22.8269C18.8834 22.8966 18.9034 22.9452 18.9135 23.0153C18.9234 23.0819 18.9104 23.1515 18.9079 23.217C18.9004 23.4191 19.0411 23.5778 19.2363 23.5788C19.442 23.5804 19.5552 23.3572 19.6057 23.1776C19.6548 23.004 19.6773 22.8315 19.7143 22.6555C19.7459 22.506 19.853 22.3632 19.9216 22.2286C19.9881 22.0986 20.0893 21.9952 20.1303 21.8519C20.1753 21.6953 20.1749 21.5172 20.1713 21.3549C20.1688 21.2372 20.1208 21.0898 20.0377 21.0023C19.9301 20.8897 19.7849 20.9766 19.7083 21.0816C19.6162 21.207 19.6398 21.4102 19.5021 21.4941C19.388 21.5637 19.2598 21.5074 19.1397 21.5556C19.001 21.6113 18.9295 21.7859 18.9484 21.9302C18.959 22.0055 19.0411 22.1646 19.0721 22.1989Z" fill="#B82BF9"/>
</g>
</g>
<path d="M42.0063 8.15596V16.1797C42.0063 16.9821 42.2037 17.5998 42.5985 18.0328C42.9933 18.4658 43.5729 18.6824 44.337 18.6824C45.1012 18.6824 45.687 18.4658 46.0946 18.0328C46.5022 17.5998 46.7059 16.9821 46.7059 16.1797V8.15596H49.9728V16.1606C49.9728 17.3578 49.718 18.3703 49.2086 19.1982C48.6992 20.026 48.0114 20.6501 47.1453 21.0704C46.292 21.4907 45.3368 21.7008 44.2797 21.7008C43.2226 21.7008 42.2738 21.4971 41.4332 21.0895C40.6053 20.6692 39.9494 20.0451 39.4655 19.2173C38.9815 18.3767 38.7395 17.3578 38.7395 16.1606V8.15596H42.0063ZM58.7622 10.7923C60.0102 10.7923 61.0036 11.1999 61.7427 12.015C62.4937 12.8174 62.8699 13.9254 62.8699 15.3391V21.5671H59.6218V15.7785C59.6218 15.0653 59.4372 14.5113 59.0678 14.1165C58.6985 13.7217 58.2017 13.5242 57.5777 13.5242C56.9537 13.5242 56.4569 13.7217 56.0876 14.1165C55.7182 14.5113 55.5336 15.0653 55.5336 15.7785V21.5671H52.2667V10.907H55.5336V12.3207C55.8647 11.8495 56.3104 11.4801 56.8708 11.2126C57.4313 10.9325 58.0617 10.7923 58.7622 10.7923ZM66.7826 9.79892C66.2095 9.79892 65.7385 9.63337 65.3689 9.30221C65.0125 8.95834 64.834 8.53804 64.834 8.04134C64.834 7.53191 65.0125 7.11162 65.3689 6.78046C65.7385 6.43659 66.2095 6.26465 66.7826 6.26465C67.3432 6.26465 67.8017 6.43659 68.1581 6.78046C68.5277 7.11162 68.7121 7.53191 68.7121 8.04134C68.7121 8.53804 68.5277 8.95834 68.1581 9.30221C67.8017 9.63337 67.3432 9.79892 66.7826 9.79892ZM68.4065 10.907V21.5671H65.1397V10.907H68.4065ZM75.6267 21.7199C74.5819 21.7199 73.6398 21.4971 72.7992 21.0513C71.9712 20.6055 71.3151 19.9687 70.8315 19.1409C70.3599 18.313 70.1247 17.3451 70.1247 16.237C70.1247 15.1417 70.3665 14.1802 70.85 13.3523C71.3342 12.5117 71.9969 11.8686 72.8375 11.4228C73.678 10.977 74.6201 10.7541 75.6649 10.7541C76.709 10.7541 77.6517 10.977 78.4923 11.4228C79.3329 11.8686 79.9949 12.5117 80.4791 13.3523C80.9627 14.1802 81.2051 15.1417 81.2051 16.237C81.2051 17.3323 80.9567 18.3003 80.46 19.1409C79.9758 19.9687 79.3072 20.6055 78.4541 21.0513C77.6135 21.4971 76.6708 21.7199 75.6267 21.7199ZM75.6267 18.8925C76.2505 18.8925 76.7789 18.6633 77.2123 18.2048C77.6577 17.7463 77.881 17.0903 77.881 16.237C77.881 15.3837 77.6642 14.7278 77.2314 14.2693C76.8111 13.8108 76.2887 13.5815 75.6649 13.5815C75.0279 13.5815 74.4995 13.8108 74.0792 14.2693C73.6589 14.7151 73.4488 15.3709 73.4488 16.237C73.4488 17.0903 73.6524 17.7463 74.0601 18.2048C74.4804 18.6633 75.0022 18.8925 75.6267 18.8925ZM89.4336 10.7923C90.6813 10.7923 91.6748 11.1999 92.4139 12.015C93.1649 12.8174 93.541 13.9254 93.541 15.3391V21.5671H90.2933V15.7785C90.2933 15.0653 90.1082 14.5113 89.7393 14.1165C89.3697 13.7217 88.873 13.5242 88.2491 13.5242C87.6247 13.5242 87.128 13.7217 86.759 14.1165C86.3895 14.5113 86.205 15.0653 86.205 15.7785V21.5671H82.9382V10.907H86.205V12.3207C86.5357 11.8495 86.9817 11.4801 87.5423 11.2126C88.1023 10.9325 88.7327 10.7923 89.4336 10.7923Z" fill="#B82BF9"/>
<path d="M105.305 10.4674H99.3449V13.1038C99.5999 12.8236 99.9563 12.5944 100.415 12.4161C100.873 12.2377 101.37 12.1486 101.905 12.1486C102.86 12.1486 103.65 12.3651 104.274 12.7981C104.911 13.2311 105.375 13.7916 105.668 14.4793C105.962 15.1671 106.108 15.9121 106.108 16.7145C106.108 18.2046 105.688 19.3891 104.847 20.2679C104.006 21.1339 102.822 21.567 101.294 21.567C100.274 21.567 99.3897 21.395 98.6381 21.0511C97.8865 20.6945 97.3074 20.2042 96.8996 19.5801C96.4918 18.9561 96.2692 18.2364 96.231 17.4213H99.4213C99.4978 17.8161 99.6822 18.1473 99.9754 18.4148C100.269 18.6695 100.67 18.7968 101.179 18.7968C101.778 18.7968 102.223 18.6058 102.516 18.2237C102.809 17.8416 102.956 17.3322 102.956 16.6954C102.956 16.0713 102.803 15.5937 102.497 15.2626C102.191 14.9314 101.745 14.7659 101.16 14.7659C100.727 14.7659 100.37 14.8741 100.09 15.0906C99.81 15.2944 99.6249 15.5682 99.536 15.9121H96.3838V7.60181H105.305V10.4674ZM107.988 19.0834V16.447L114.025 7.81195H117.674V16.256H119.24V19.0834H117.674V21.567H114.407V19.0834H107.988ZM114.636 11.4035L111.427 16.256H114.636V11.4035Z" fill="#FFBF33"/>
</g>
<defs>
<clipPath id="clip0_1_407">
<rect width="119.998" height="28.6562" fill="white" transform="translate(0.000976562 0.671875)"/>
</clipPath>
</defs>
</svg>
