<svg width="31" height="30" viewBox="0 0 31 30" fill="none" xmlns="http://www.w3.org/2000/svg">
<rect x="0.890625" width="30" height="30" rx="15" fill="#022B69"/>
<g clip-path="url(#clip0_4_809)">
<path d="M18.801 11.2769C17.541 11.2769 17.0085 11.8781 16.131 11.8781C15.2314 11.8781 14.5451 11.2812 13.4532 11.2812C12.3845 11.2812 11.2448 11.9337 10.521 13.0453C9.50479 14.6128 9.67729 17.565 11.3232 20.08C11.912 20.9803 12.6982 21.99 13.7295 22.0009H13.7482C14.6445 22.0009 14.9107 21.414 16.1442 21.4072H16.1629C17.3779 21.4072 17.6217 21.9975 18.5142 21.9975H18.5329C19.5642 21.9865 20.3926 20.8678 20.9814 19.9709C21.4051 19.3259 21.5626 19.0022 21.8876 18.2725C19.5067 17.3687 19.1242 13.9934 21.4789 12.6994C20.7601 11.7994 19.7501 11.2781 18.7979 11.2781L18.801 11.2769Z" fill="#F8F9FA" stroke="#F8F9FA" stroke-width="0.03125"/>
<path d="M18.5233 8C17.7733 8.05094 16.8983 8.52844 16.3858 9.15188C15.9208 9.71688 15.5383 10.555 15.6883 11.3678H15.7483C16.5471 11.3678 17.3646 10.8869 17.8421 10.2706C18.3021 9.68406 18.6508 8.85281 18.5233 8Z" fill="#F8F9FA" stroke="#F8F9FA" stroke-width="0.03125"/>
</g>
<defs>
<clipPath id="clip0_4_809">
<rect width="16" height="16" fill="white" transform="translate(7.89062 7)"/>
</clipPath>
</defs>
</svg>
