<svg width="283" height="65" viewBox="0 0 283 65" fill="none" xmlns="http://www.w3.org/2000/svg">
<g opacity="0.88">
<path d="M14.8633 9.81533C17.3009 9.81533 19.5486 10.4168 21.6063 11.6198C23.6957 12.8228 25.3419 14.4373 26.5449 16.4634C27.7796 18.4895 28.3969 20.7056 28.3969 23.1115C28.3969 26.6888 26.7665 30.3453 23.5058 34.0809L13.1063 46H11.3018L21.2739 34.8407C20.4508 35.4105 19.4061 35.8696 18.1398 36.2178C16.8735 36.566 15.6547 36.7401 14.4834 36.7401C12.204 36.7401 10.0513 36.1228 8.02521 34.8882C6.03078 33.6535 4.43207 31.9915 3.22908 29.9021C2.05775 27.8127 1.47208 25.565 1.47208 23.159C1.47208 20.753 2.07357 18.537 3.27656 16.5109C4.47955 14.4532 6.09409 12.8228 8.12018 11.6198C10.1779 10.4168 12.4256 9.81533 14.8633 9.81533ZM14.8633 11.145C12.7105 11.145 10.7319 11.6831 8.92745 12.7595C7.12297 13.8359 5.68254 15.3079 4.60618 17.1757C3.56148 19.0119 3.03913 21.0221 3.03913 23.2065C3.03913 25.3909 3.57731 27.417 4.65367 29.2848C5.73003 31.1526 7.17045 32.6405 8.97494 33.7485C10.7794 34.8249 12.7422 35.363 14.8633 35.363C16.9843 35.363 18.9629 34.809 20.7991 33.701C22.6352 32.593 24.0915 31.1051 25.1678 29.2373C26.2758 27.3695 26.8298 25.3592 26.8298 23.2065C26.8298 21.0221 26.2917 19.0119 25.2153 17.1757C24.1389 15.3079 22.6827 13.8359 20.8465 12.7595C19.0104 11.6831 17.016 11.145 14.8633 11.145ZM35.988 19.74C35.5448 19.74 35.1491 19.5817 34.8009 19.2651C34.4843 18.9486 34.326 18.5528 34.326 18.078C34.326 17.6348 34.4843 17.2549 34.8009 16.9383C35.1491 16.6217 35.5448 16.4634 35.988 16.4634C36.4313 16.4634 36.8111 16.6217 37.1277 16.9383C37.476 17.2549 37.6501 17.6348 37.6501 18.078C37.6501 18.5528 37.476 18.9486 37.1277 19.2651C36.8111 19.5817 36.4313 19.74 35.988 19.74ZM28.4377 54.0727C30.3372 54.0727 31.9359 53.4237 33.2338 52.1258C34.5318 50.8594 35.1808 49.2766 35.1808 47.3771V24.6311H36.7003V47.3771C36.7003 48.8967 36.3363 50.2738 35.6082 51.5084C34.88 52.7431 33.8828 53.6928 32.6165 54.3576C31.3502 55.0541 29.9573 55.4023 28.4377 55.4023V54.0727ZM53.9602 46.5224C51.9341 46.5224 50.0505 46.0158 48.3093 45.0028C46.5681 43.9897 45.191 42.6285 44.178 40.919C43.1649 39.1778 42.6584 37.31 42.6584 35.3156C42.6584 33.3211 43.1649 31.4691 44.178 29.7596C45.191 28.0185 46.5681 26.6414 48.3093 25.6283C50.0505 24.6153 51.9341 24.1088 53.9602 24.1088C56.0179 24.1088 57.9649 24.6628 59.801 25.7708C61.6372 26.8471 62.9193 28.2559 63.6474 29.9971V24.6311H65.167V46H63.6474V40.6815C62.7927 42.4543 61.463 43.8789 59.6585 44.9553C57.8857 46 55.9863 46.5224 53.9602 46.5224ZM54.0551 45.1927C55.7963 45.1927 57.4109 44.7495 58.8988 43.8631C60.3867 42.945 61.558 41.742 62.4128 40.2541C63.2992 38.7346 63.7424 37.0884 63.7424 35.3156C63.7424 33.5744 63.2992 31.944 62.4128 30.4244C61.5263 28.9049 60.3392 27.7019 58.8513 26.8155C57.3634 25.8974 55.7488 25.4384 54.0077 25.4384C52.2665 25.4384 50.6361 25.8974 49.1166 26.8155C47.6287 27.7335 46.4257 28.9524 45.5076 30.4719C44.6212 31.9915 44.178 33.6219 44.178 35.363C44.178 37.1042 44.6212 38.7346 45.5076 40.2541C46.4257 41.742 47.6445 42.945 49.164 43.8631C50.6836 44.7495 52.314 45.1927 54.0551 45.1927ZM76.3367 46.5224C74.8171 46.5224 73.4717 46.2691 72.3003 45.7626C71.129 45.2244 70.2901 44.5437 69.7835 43.7207V41.2039C70.385 42.5651 71.2081 43.5782 72.2528 44.243C73.2975 44.8762 74.6272 45.1927 76.2417 45.1927C77.7929 45.1927 79.0434 44.7179 79.9931 43.7681C80.9429 42.7868 81.4177 41.5363 81.4177 40.0167C81.4177 38.7187 81.1486 37.7215 80.6105 37.0251C80.0723 36.2969 79.2017 35.5688 77.9987 34.8407L76.1942 33.796C74.8963 33.0045 73.9149 32.3872 73.2501 31.944C72.6169 31.4691 72.1104 30.9468 71.7305 30.377C71.3506 29.7755 71.1607 29.079 71.1607 28.2876C71.1607 27.0213 71.6039 26.0082 72.4903 25.2484C73.3767 24.4886 74.5322 24.1088 75.9568 24.1088C77.698 24.1088 79.1542 24.5045 80.3255 25.2959V27.3853C79.3441 26.0874 77.9354 25.4384 76.0992 25.4384C75.0862 25.4384 74.2631 25.6916 73.6299 26.1982C72.9968 26.7047 72.6802 27.3537 72.6802 28.1451C72.6802 28.8416 72.8702 29.4589 73.2501 29.9971C73.6299 30.5036 74.1523 30.9785 74.8171 31.4217C75.5136 31.8649 76.6533 32.5297 78.2361 33.4161C79.8507 34.3342 81.0378 35.2839 81.7976 36.2653C82.5574 37.215 82.9373 38.4655 82.9373 40.0167C82.9373 41.9795 82.2883 43.5624 80.9903 44.7654C79.724 45.9367 78.1728 46.5224 76.3367 46.5224ZM97.7367 46.6173C95.679 46.6173 93.7795 46.1266 92.0384 45.1452C90.3288 44.1639 88.9676 42.8184 87.9545 41.1089C86.9415 39.3994 86.435 37.4683 86.435 35.3156C86.435 33.3211 86.9415 31.485 87.9545 29.8071C88.9676 28.0976 90.3447 26.7363 92.0858 25.7233C93.8587 24.7102 95.8056 24.2037 97.9267 24.2037C99.6995 24.2037 101.219 24.4886 102.485 25.0585C103.752 25.6283 104.986 26.5147 106.189 27.7177V30.282C105.145 28.7308 103.973 27.5594 102.675 26.768C101.409 25.9449 99.8261 25.5333 97.9267 25.5333C96.1855 25.5333 94.5393 25.9924 92.9881 26.9105C91.4685 27.7969 90.2497 28.9999 89.3316 30.5194C88.4136 32.039 87.9545 33.6694 87.9545 35.4105C87.9545 37.31 88.3977 39.0195 89.2841 40.5391C90.1706 42.027 91.3577 43.1983 92.8456 44.0531C94.3652 44.8762 95.9956 45.2877 97.7367 45.2877C101.282 45.2877 104.1 43.689 106.189 40.4916V43.0558C105.05 44.2588 103.783 45.1611 102.39 45.7626C101.029 46.3324 99.4779 46.6173 97.7367 46.6173ZM110.393 10.3852H111.912V29.0473C112.577 27.6227 113.701 26.4514 115.284 25.5333C116.898 24.5836 118.529 24.1088 120.175 24.1088C123.182 24.1088 125.493 24.9318 127.108 26.578C128.754 28.2242 129.577 30.5511 129.577 33.5586V46H128.058V33.5586C128.058 30.9626 127.361 28.9682 125.968 27.5753C124.607 26.1507 122.676 25.4384 120.175 25.4384C118.655 25.4384 117.262 25.8024 115.996 26.5306C114.73 27.227 113.732 28.2084 113.004 29.4747C112.276 30.7094 111.912 32.0706 111.912 33.5586V46H110.393V10.3852ZM145.736 46.7598C143.583 46.7598 141.636 46.2374 139.895 45.1927C138.154 44.1164 136.792 42.7076 135.811 40.9664C134.829 39.1936 134.339 37.2783 134.339 35.2206C134.339 33.1945 134.829 31.3109 135.811 29.5697C136.824 27.8285 138.185 26.4514 139.895 25.4384C141.636 24.3937 143.567 23.8713 145.688 23.8713C147.777 23.8713 149.677 24.3937 151.386 25.4384C153.128 26.4514 154.489 27.8285 155.47 29.5697C156.452 31.3109 156.942 33.1945 156.942 35.2206C156.942 37.3416 156.467 39.2886 155.518 41.0614C154.568 42.8026 153.238 44.1955 151.529 45.2402C149.851 46.2533 147.92 46.7598 145.736 46.7598ZM145.736 45.4302C147.54 45.4302 149.186 44.9711 150.674 44.0531C152.162 43.135 153.318 41.9162 154.141 40.3966C154.995 38.8454 155.423 37.1517 155.423 35.3156C155.423 33.5111 154.995 31.8332 154.141 30.282C153.286 28.7308 152.115 27.4961 150.627 26.578C149.139 25.66 147.493 25.2009 145.688 25.2009C143.884 25.2009 142.222 25.6758 140.702 26.6255C139.214 27.5436 138.027 28.7783 137.14 30.3295C136.286 31.8807 135.858 33.5586 135.858 35.363C135.858 37.1675 136.286 38.8454 137.14 40.3966C138.027 41.9162 139.214 43.135 140.702 44.0531C142.222 44.9711 143.899 45.4302 145.736 45.4302ZM171.844 46.7598C169.691 46.7598 167.744 46.2374 166.003 45.1927C164.262 44.1164 162.9 42.7076 161.919 40.9664C160.938 39.1936 160.447 37.2783 160.447 35.2206C160.447 33.1945 160.938 31.3109 161.919 29.5697C162.932 27.8285 164.293 26.4514 166.003 25.4384C167.744 24.3937 169.675 23.8713 171.796 23.8713C173.886 23.8713 175.785 24.3937 177.495 25.4384C179.236 26.4514 180.597 27.8285 181.578 29.5697C182.56 31.3109 183.051 33.1945 183.051 35.2206C183.051 37.3416 182.576 39.2886 181.626 41.0614C180.676 42.8026 179.347 44.1955 177.637 45.2402C175.959 46.2533 174.028 46.7598 171.844 46.7598ZM171.844 45.4302C173.648 45.4302 175.294 44.9711 176.782 44.0531C178.27 43.135 179.426 41.9162 180.249 40.3966C181.104 38.8454 181.531 37.1517 181.531 35.3156C181.531 33.5111 181.104 31.8332 180.249 30.282C179.394 28.7308 178.223 27.4961 176.735 26.578C175.247 25.66 173.601 25.2009 171.796 25.2009C169.992 25.2009 168.33 25.6758 166.81 26.6255C165.322 27.5436 164.135 28.7783 163.249 30.3295C162.394 31.8807 161.967 33.5586 161.967 35.363C161.967 37.1675 162.394 38.8454 163.249 40.3966C164.135 41.9162 165.322 43.135 166.81 44.0531C168.33 44.9711 170.008 45.4302 171.844 45.4302ZM195.91 46.4274C194.422 46.4274 193.061 46.095 191.826 45.4302C190.592 44.7337 189.61 43.7681 188.882 42.5335C188.154 41.2988 187.79 39.9217 187.79 38.4022V10.3852H189.31V38.4022C189.31 39.6685 189.594 40.8081 190.164 41.8212C190.766 42.8342 191.573 43.6415 192.586 44.243C193.599 44.8128 194.707 45.0978 195.91 45.0978V46.4274ZM209.45 46.5224C207.393 46.5224 205.493 46.0158 203.752 45.0028C202.043 43.9897 200.681 42.6285 199.668 40.919C198.655 39.2094 198.149 37.3416 198.149 35.3156C198.149 33.2895 198.655 31.4217 199.668 29.7122C200.681 28.0026 202.043 26.6414 203.752 25.6283C205.493 24.6153 207.393 24.1088 209.45 24.1088C211.445 24.1088 213.344 24.6469 215.149 25.7233C216.953 26.768 218.283 28.1451 219.138 29.8546V10.3852H220.657V46H219.138V40.824C218.188 42.5335 216.811 43.9106 215.006 44.9553C213.234 46 211.382 46.5224 209.45 46.5224ZM209.403 45.1927C211.144 45.1927 212.759 44.7495 214.247 43.8631C215.766 42.945 216.969 41.742 217.856 40.2541C218.774 38.7346 219.233 37.1042 219.233 35.363C219.233 33.6219 218.774 31.9915 217.856 30.4719C216.969 28.9524 215.766 27.7335 214.247 26.8155C212.759 25.8974 211.144 25.4384 209.403 25.4384C207.662 25.4384 206.047 25.8974 204.559 26.8155C203.071 27.7019 201.884 28.9049 200.998 30.4244C200.111 31.944 199.668 33.5744 199.668 35.3156C199.668 37.0884 200.096 38.7346 200.95 40.2541C201.837 41.742 203.024 42.945 204.512 43.8631C206.031 44.7495 207.662 45.1927 209.403 45.1927ZM237.05 45.2402C238.697 45.2402 240.264 44.8128 241.752 43.9581C243.24 43.1033 244.474 41.932 245.456 40.4441V42.8659C244.284 44.1639 243.002 45.1136 241.609 45.7151C240.216 46.2849 238.633 46.5698 236.861 46.5698C234.898 46.5698 233.046 46.0475 231.305 45.0028C229.595 43.9581 228.218 42.5651 227.173 40.824C226.16 39.0828 225.654 37.2308 225.654 35.2681C225.654 33.147 226.16 31.2475 227.173 29.5697C228.186 27.8602 229.563 26.5306 231.305 25.5808C233.077 24.6311 235.04 24.1562 237.193 24.1562C240.485 24.1562 243.287 25.4542 245.598 28.0501L230.687 42.7709C231.732 43.6257 232.745 44.2588 233.726 44.6704C234.708 45.0503 235.816 45.2402 237.05 45.2402ZM227.173 35.1256C227.173 37.7532 228.044 40.0009 229.785 41.8687L243.699 28.0501C242.654 27.1321 241.641 26.4831 240.659 26.1032C239.678 25.6916 238.507 25.4859 237.145 25.4859C235.214 25.4859 233.489 25.9132 231.969 26.768C230.481 27.5911 229.31 28.7308 228.455 30.187C227.601 31.6433 227.173 33.2895 227.173 35.1256ZM255.524 46.5224C254.004 46.5224 252.659 46.2691 251.487 45.7626C250.316 45.2244 249.477 44.5437 248.971 43.7207V41.2039C249.572 42.5651 250.395 43.5782 251.44 44.243C252.485 44.8762 253.814 45.1927 255.429 45.1927C256.98 45.1927 258.231 44.7179 259.18 43.7681C260.13 42.7868 260.605 41.5363 260.605 40.0167C260.605 38.7187 260.336 37.7215 259.798 37.0251C259.259 36.2969 258.389 35.5688 257.186 34.8407L255.381 33.796C254.083 33.0045 253.102 32.3872 252.437 31.944C251.804 31.4691 251.297 30.9468 250.918 30.377C250.538 29.7755 250.348 29.079 250.348 28.2876C250.348 27.0213 250.791 26.0082 251.677 25.2484C252.564 24.4886 253.719 24.1088 255.144 24.1088C256.885 24.1088 258.341 24.5045 259.513 25.2959V27.3853C258.531 26.0874 257.123 25.4384 255.286 25.4384C254.273 25.4384 253.45 25.6916 252.817 26.1982C252.184 26.7047 251.867 27.3537 251.867 28.1451C251.867 28.8416 252.057 29.4589 252.437 29.9971C252.817 30.5036 253.339 30.9785 254.004 31.4217C254.701 31.8649 255.84 32.5297 257.423 33.4161C259.038 34.3342 260.225 35.2839 260.985 36.2653C261.745 37.215 262.124 38.4655 262.124 40.0167C262.124 41.9795 261.475 43.5624 260.177 44.7654C258.911 45.9367 257.36 46.5224 255.524 46.5224ZM266.857 10.4801H268.376V32.039L276.829 24.6311H278.776L268.994 33.1787L281.245 46H279.203L268.376 34.6033V46H266.857V10.4801Z" fill="#022B69"/>
<path d="M21.6063 11.6198L20.8128 12.9771L20.8218 12.9823L21.6063 11.6198ZM26.5449 16.4634L25.193 17.2661L25.1976 17.2739L25.2023 17.2816L26.5449 16.4634ZM23.5058 34.0809L22.3213 33.047L22.3211 33.0473L23.5058 34.0809ZM13.1063 46V47.5722H13.821L14.2909 47.0336L13.1063 46ZM11.3018 46L10.1294 44.9524L7.7883 47.5722H11.3018V46ZM21.2739 34.8407L22.4463 35.8883L20.379 33.548L21.2739 34.8407ZM18.1398 36.2178L17.7229 34.7018L18.1398 36.2178ZM8.02521 34.8882L7.19764 36.225L7.20707 36.2308L8.02521 34.8882ZM3.22908 29.9021L1.85766 30.6709L1.86206 30.6788L1.86655 30.6866L3.22908 29.9021ZM3.27656 16.5109L4.62848 17.3136L4.63386 17.3044L3.27656 16.5109ZM8.12018 11.6198L7.32667 10.2625L7.3175 10.2679L8.12018 11.6198ZM8.92745 12.7595L8.12204 11.4092L8.12204 11.4092L8.92745 12.7595ZM4.60618 17.1757L3.24394 16.3907L3.23967 16.3982L4.60618 17.1757ZM4.65367 29.2848L6.01589 28.4998H6.01589L4.65367 29.2848ZM8.97494 33.7485L8.15225 35.0883L8.16085 35.0936L8.16952 35.0988L8.97494 33.7485ZM20.7991 33.701L19.9867 32.3549L20.7991 33.701ZM25.1678 29.2373L23.8156 28.4351L23.8106 28.4437L23.8056 28.4523L25.1678 29.2373ZM25.2153 17.1757L23.853 17.9608L23.8589 17.9708L25.2153 17.1757ZM20.8465 12.7595L21.6417 11.4031V11.4031L20.8465 12.7595ZM14.8633 11.3876C17.0286 11.3876 19.0015 11.9182 20.8128 12.9771L22.3998 10.2625C20.0957 8.91547 17.5731 8.24311 14.8633 8.24311V11.3876ZM20.8218 12.9823C22.6828 14.0538 24.1313 15.4778 25.193 17.2661L27.8968 15.6608C26.5526 13.3968 24.7086 11.5918 22.3908 10.2573L20.8218 12.9823ZM25.2023 17.2816C26.2846 19.0576 26.8247 20.9899 26.8247 23.1115H29.9691C29.9691 20.4212 29.2746 17.9215 27.8875 15.6453L25.2023 17.2816ZM26.8247 23.1115C26.8247 26.184 25.4285 29.4874 22.3213 33.047L24.6902 35.1148C28.1046 31.2032 29.9691 27.1937 29.9691 23.1115H26.8247ZM22.3211 33.0473L11.9216 44.9664L14.2909 47.0336L24.6905 35.1145L22.3211 33.0473ZM13.1063 44.4278H11.3018V47.5722H13.1063V44.4278ZM12.4741 47.0476L22.4463 35.8883L20.1016 33.7931L10.1294 44.9524L12.4741 47.0476ZM20.379 33.548C19.739 33.9911 18.8687 34.3868 17.7229 34.7018L18.5567 37.7337C19.9436 37.3524 21.1627 36.8299 22.1688 36.1334L20.379 33.548ZM17.7229 34.7018C16.5763 35.0172 15.498 35.1679 14.4834 35.1679V38.3124C15.8114 38.3124 17.1708 38.1149 18.5567 37.7337L17.7229 34.7018ZM14.4834 35.1679C12.5048 35.1679 10.6335 34.6365 8.84335 33.5456L7.20707 36.2308C9.46905 37.6092 11.9033 38.3124 14.4834 38.3124V35.1679ZM8.85276 33.5514C7.08594 32.4576 5.66849 30.988 4.5916 29.1176L1.86655 30.6866C3.19565 32.995 4.97562 34.8494 7.19766 36.225L8.85276 33.5514ZM4.6005 29.1333C3.56144 27.2798 3.0443 25.297 3.0443 23.159H-0.100143C-0.100143 25.833 0.554053 28.3456 1.85766 30.6709L4.6005 29.1333ZM3.0443 23.159C3.0443 21.0293 3.57284 19.0915 4.62845 17.3136L1.92468 15.7082C0.574306 17.9826 -0.100143 20.4768 -0.100143 23.159H3.0443ZM4.63386 17.3044C5.70394 15.474 7.12876 14.0369 8.92286 12.9717L7.3175 10.2679C5.05943 11.6087 3.25517 13.4323 1.91927 15.7174L4.63386 17.3044ZM8.91368 12.9771C10.725 11.9182 12.6979 11.3876 14.8633 11.3876V8.24311C12.1534 8.24311 9.63085 8.91547 7.32669 10.2625L8.91368 12.9771ZM14.8633 9.57273C12.4343 9.57273 10.1763 10.1839 8.12204 11.4092L9.73287 14.1097C11.2876 13.1824 12.9868 12.7172 14.8633 12.7172V9.57273ZM8.12204 11.4092C6.08049 12.627 4.45091 14.2963 3.24396 16.3907L5.9684 17.9607C6.91418 16.3195 8.16544 15.0447 9.73287 14.1097L8.12204 11.4092ZM3.23967 16.3982C2.05544 18.4796 1.46691 20.7592 1.46691 23.2065H4.61135C4.61135 21.2851 5.06752 19.5442 5.9727 17.9532L3.23967 16.3982ZM1.46691 23.2065C1.46691 25.6626 2.0756 27.9599 3.29145 30.0698L6.01589 28.4998C5.07902 26.874 4.61135 25.1192 4.61135 23.2065H1.46691ZM3.29145 30.0698C4.49616 32.1603 6.12034 33.8406 8.15225 35.0883L9.79762 32.4087C8.22057 31.4403 6.9639 30.1448 6.01589 28.4998L3.29145 30.0698ZM8.16952 35.0988C10.22 36.3218 12.4615 36.9353 14.8633 36.9353V33.7908C13.0229 33.7908 11.3389 33.3279 9.78035 32.3982L8.16952 35.0988ZM14.8633 36.9353C17.274 36.9353 19.533 36.3013 21.6114 35.0471L19.9867 32.3549C18.3929 33.3167 16.6947 33.7908 14.8633 33.7908V36.9353ZM21.6114 35.0471C23.6766 33.8009 25.3215 32.1194 26.53 30.0223L23.8056 28.4523C22.8614 30.0908 21.5938 31.3851 19.9867 32.3549L21.6114 35.0471ZM26.52 30.0394C27.7707 27.9311 28.4021 25.6441 28.4021 23.2065H25.2576C25.2576 25.0743 24.7809 26.8079 23.8156 28.4351L26.52 30.0394ZM28.4021 23.2065C28.4021 20.7503 27.7932 18.4645 26.5717 16.3806L23.8589 17.9708C24.7901 19.5593 25.2576 21.2939 25.2576 23.2065H28.4021ZM26.5775 16.3907C25.3667 14.2897 23.7164 12.6194 21.6417 11.4031L20.0514 14.1158C21.649 15.0524 22.9111 16.3262 23.8531 17.9607L26.5775 16.3907ZM21.6417 11.4031C19.5615 10.1837 17.2921 9.57273 14.8633 9.57273V12.7172C16.7398 12.7172 18.4593 13.1825 20.0514 14.1158L21.6417 11.4031ZM34.8009 19.2651L33.6892 20.3769L33.7156 20.4033L33.7433 20.4285L34.8009 19.2651ZM34.8009 16.9383L33.7433 15.7749L33.7156 15.8001L33.6892 15.8266L34.8009 16.9383ZM37.1277 16.9383L36.016 18.05L36.0424 18.0765L36.0701 18.1016L37.1277 16.9383ZM37.1277 19.2651L36.0701 18.1018L36.0424 18.1269L36.016 18.1534L37.1277 19.2651ZM28.4377 54.0727V52.5005H26.8655V54.0727H28.4377ZM33.2338 52.1258L32.1359 51.0004L32.129 51.0072L32.1221 51.014L33.2338 52.1258ZM35.1808 24.6311V23.0589H33.6086V24.6311H35.1808ZM36.7003 24.6311H38.2726V23.0589H36.7003V24.6311ZM32.6165 54.3576L31.8857 52.9656L31.8722 52.9727L31.8588 52.98L32.6165 54.3576ZM28.4377 55.4023H26.8655V56.9745H28.4377V55.4023ZM35.988 18.1678C35.9583 18.1678 35.9475 18.1634 35.9428 18.1615C35.9365 18.159 35.9081 18.1469 35.8585 18.1018L33.7433 20.4285C34.3614 20.9904 35.128 21.3122 35.988 21.3122V18.1678ZM35.9126 18.1534C35.9033 18.1441 35.9007 18.1398 35.9013 18.1407C35.9021 18.1419 35.9035 18.1444 35.9045 18.147C35.9055 18.1494 35.9042 18.1472 35.9026 18.138C35.9008 18.1285 35.8982 18.1092 35.8982 18.078H32.7538C32.7538 18.9417 33.0585 19.7462 33.6892 20.3769L35.9126 18.1534ZM35.8982 18.078C35.8982 18.0694 35.8986 18.0634 35.899 18.0597C35.8991 18.0578 35.8993 18.0565 35.8994 18.0556C35.8995 18.0548 35.8996 18.0544 35.8996 18.0543C35.8996 18.0543 35.8996 18.0547 35.8994 18.0553C35.8993 18.0559 35.899 18.0568 35.8987 18.0578C35.898 18.0601 35.8971 18.0626 35.896 18.0653C35.8935 18.0713 35.8915 18.0742 35.8921 18.0733C35.893 18.0721 35.8985 18.0641 35.9126 18.05L33.6892 15.8266C33.0811 16.4346 32.7538 17.2131 32.7538 18.078H35.8982ZM35.8585 18.1016C35.9081 18.0565 35.9365 18.0444 35.9428 18.0419C35.9475 18.04 35.9583 18.0357 35.988 18.0357V14.8912C35.128 14.8912 34.3614 15.2131 33.7433 15.7749L35.8585 18.1016ZM35.988 18.0357C35.9966 18.0357 36.0026 18.036 36.0063 18.0364C36.0082 18.0366 36.0095 18.0367 36.0104 18.0368C36.0112 18.037 36.0117 18.037 36.0117 18.037C36.0117 18.037 36.0114 18.037 36.0107 18.0368C36.0101 18.0367 36.0092 18.0364 36.0082 18.0361C36.006 18.0355 36.0034 18.0346 36.0007 18.0334C35.9947 18.0309 35.9918 18.0289 35.9927 18.0296C35.9939 18.0304 36.0019 18.0359 36.016 18.05L38.2394 15.8266C37.6314 15.2185 36.853 14.8912 35.988 14.8912V18.0357ZM36.0701 18.1016C36.0895 18.1193 36.0974 18.1295 36.0985 18.1309C36.0993 18.132 36.0953 18.1268 36.0902 18.1157C36.0878 18.1105 36.0856 18.1047 36.0836 18.0988C36.0816 18.0928 36.0802 18.0874 36.0792 18.0828C36.0772 18.0732 36.0778 18.0707 36.0778 18.078H39.2223C39.2223 17.1618 38.8385 16.3687 38.1853 15.7749L36.0701 18.1016ZM36.0778 18.078C36.0778 18.1003 36.0758 18.1104 36.0757 18.1109C36.0757 18.1111 36.0768 18.1058 36.0804 18.0977C36.082 18.094 36.0838 18.0907 36.0854 18.0879C36.087 18.0851 36.0881 18.0835 36.0884 18.0831C36.0891 18.0821 36.0845 18.0887 36.0701 18.1018L38.1853 20.4285C38.8647 19.8109 39.2223 18.9912 39.2223 18.078H36.0778ZM36.016 18.1534C36.0019 18.1675 35.9939 18.1731 35.9927 18.1739C35.9918 18.1745 35.9947 18.1725 36.0007 18.17C36.0034 18.1689 36.006 18.168 36.0082 18.1673C36.0092 18.167 36.0101 18.1668 36.0107 18.1666C36.0114 18.1664 36.0117 18.1664 36.0117 18.1664C36.0117 18.1664 36.0112 18.1665 36.0104 18.1666C36.0095 18.1667 36.0082 18.1669 36.0063 18.1671C36.0026 18.1674 35.9966 18.1678 35.988 18.1678V21.3122C36.853 21.3122 37.6314 20.9849 38.2394 20.3769L36.016 18.1534ZM28.4377 55.6449C30.7379 55.6449 32.7415 54.8416 34.3456 53.2375L32.1221 51.014C31.1303 52.0059 29.9364 52.5005 28.4377 52.5005V55.6449ZM34.3317 53.2511C35.9487 51.6736 36.753 49.6778 36.753 47.3771H33.6086C33.6086 48.8753 33.1149 50.0453 32.1359 51.0004L34.3317 53.2511ZM36.753 47.3771V24.6311H33.6086V47.3771H36.753ZM35.1808 26.2033H36.7003V23.0589H35.1808V26.2033ZM35.1281 24.6311V47.3771H38.2726V24.6311H35.1281ZM35.1281 47.3771C35.1281 48.6333 34.8307 49.7318 34.2539 50.7098L36.9624 52.3071C37.8419 50.8158 38.2726 49.16 38.2726 47.3771H35.1281ZM34.2539 50.7098C33.674 51.6931 32.8924 52.437 31.8857 52.9656L33.3473 55.7497C34.8732 54.9486 36.0861 53.7931 36.9624 52.3071L34.2539 50.7098ZM31.8588 52.98C30.8367 53.5422 29.7065 53.8301 28.4377 53.8301V56.9745C30.2081 56.9745 31.8637 56.566 33.3742 55.7352L31.8588 52.98ZM30.0099 55.4023V54.0727H26.8655V55.4023H30.0099ZM48.3093 45.0028L47.5186 46.3617L48.3093 45.0028ZM44.178 40.9189L42.819 41.7096L42.8254 41.7205L44.178 40.9189ZM44.178 29.7596L45.5306 30.5612L45.5369 30.5503L44.178 29.7596ZM48.3093 25.6283L47.5186 24.2694L48.3093 25.6283ZM59.801 25.7708L58.9887 27.1169L58.9973 27.1221L59.0059 27.1271L59.801 25.7708ZM63.6474 29.9971L62.1969 30.6036L65.2196 29.9971H63.6474ZM63.6474 24.6311V23.0589H62.0752V24.6311H63.6474ZM65.167 24.6311H66.7392V23.0589H65.167V24.6311ZM65.167 46V47.5722H66.7392V46H65.167ZM63.6474 46H62.0752V47.5722H63.6474V46ZM63.6474 40.6815H65.2196L62.2312 39.9987L63.6474 40.6815ZM59.6586 44.9553L60.4568 46.3098L60.464 46.3056L59.6586 44.9553ZM58.8988 43.8631L59.7034 45.2138L59.7139 45.2076L59.7243 45.2011L58.8988 43.8631ZM62.4128 40.2541L61.0547 39.4619L61.0495 39.471L62.4128 40.2541ZM62.4128 30.4244L61.0547 31.2166V31.2166L62.4128 30.4244ZM58.8513 26.8155L58.0257 28.1535L58.0361 28.1599L58.0466 28.1662L58.8513 26.8155ZM49.1166 26.8155L48.3035 25.4698L48.2972 25.4736L48.291 25.4775L49.1166 26.8155ZM45.5076 30.4719L44.1619 29.6589L44.1556 29.6693L44.1495 29.6797L45.5076 30.4719ZM45.5076 40.2541L44.1495 41.0463L44.1593 41.0632L44.1696 41.0797L45.5076 40.2541ZM49.164 43.8631L48.351 45.2088L48.3614 45.2151L48.3718 45.2212L49.164 43.8631ZM53.9602 44.9501C52.2102 44.9501 50.5996 44.5163 49.0999 43.6438L47.5186 46.3617C49.5013 47.5153 51.658 48.0946 53.9602 48.0946V44.9501ZM49.0999 43.6438C47.5872 42.7637 46.4049 41.593 45.5305 40.1174L42.8254 41.7205C43.9771 43.664 45.549 45.2158 47.5186 46.3617L49.0999 43.6438ZM45.5369 40.1283C44.6621 38.6247 44.2306 37.0293 44.2306 35.3156H41.0862C41.0862 37.5907 41.6678 39.7309 42.819 41.7096L45.5369 40.1283ZM44.2306 35.3156C44.2306 33.6021 44.6618 32.0271 45.5305 30.5612L42.8254 28.9581C41.668 30.9112 41.0862 33.0402 41.0862 35.3156H44.2306ZM45.5369 30.5503C46.413 29.0446 47.5942 27.8633 49.0999 26.9873L47.5186 24.2694C45.542 25.4194 43.9691 26.9923 42.819 28.969L45.5369 30.5503ZM49.0999 26.9873C50.5996 26.1148 52.2102 25.681 53.9602 25.681V22.5365C51.658 22.5365 49.5013 23.1158 47.5186 24.2694L49.0999 26.9873ZM53.9602 25.681C55.7192 25.681 57.3869 26.1503 58.9887 27.1169L60.6133 24.4247C58.5429 23.1752 56.3166 22.5365 53.9602 22.5365V25.681ZM59.0059 27.1271C60.5875 28.0543 61.6168 29.2165 62.1969 30.6036L65.0979 29.3905C64.2218 27.2953 62.6868 25.64 60.5961 24.4144L59.0059 27.1271ZM65.2196 29.9971V24.6311H62.0752V29.9971H65.2196ZM63.6474 26.2033H65.167V23.0589H63.6474V26.2033ZM63.5948 24.6311V46H66.7392V24.6311H63.5948ZM65.167 44.4278H63.6474V47.5722H65.167V44.4278ZM65.2196 46V40.6815H62.0752V46H65.2196ZM62.2312 39.9987C61.5194 41.475 60.4118 42.6753 58.8531 43.605L60.464 46.3056C62.5143 45.0826 64.0659 43.4337 65.0636 41.3643L62.2312 39.9987ZM58.8603 43.6008C57.3254 44.5053 55.701 44.9501 53.9602 44.9501V48.0946C56.2716 48.0946 58.446 47.4947 60.4568 46.3098L58.8603 43.6008ZM54.0551 46.765C56.078 46.765 57.9708 46.246 59.7034 45.2138L58.0941 42.5124C56.8509 43.253 55.5146 43.6205 54.0551 43.6205V46.765ZM59.7243 45.2011C61.4305 44.1484 62.7885 42.7564 63.776 41.0373L61.0495 39.471C60.3276 40.7277 59.3429 41.7417 58.0732 42.5251L59.7243 45.2011ZM63.7708 41.0463C64.7986 39.2844 65.3146 37.3645 65.3146 35.3156H62.1702C62.1702 36.8123 61.7997 38.1848 61.0547 39.4619L63.7708 41.0463ZM65.3146 35.3156C65.3146 33.293 64.796 31.3896 63.7708 29.6322L61.0547 31.2166C61.8024 32.4984 62.1702 33.8558 62.1702 35.3156H65.3146ZM63.7708 29.6322C62.7524 27.8864 61.3764 26.4897 59.656 25.4648L58.0466 28.1662C59.302 28.9141 60.3003 29.9233 61.0547 31.2166L63.7708 29.6322ZM59.6769 25.4775C57.9419 24.4069 56.0417 23.8661 54.0077 23.8661V27.0106C55.456 27.0106 56.7849 27.3879 58.0257 28.1535L59.6769 25.4775ZM54.0077 23.8661C51.974 23.8661 50.0633 24.4066 48.3035 25.4698L49.9296 28.1612C51.2089 27.3882 52.559 27.0106 54.0077 27.0106V23.8661ZM48.291 25.4775C46.5871 26.5288 45.2071 27.9289 44.1619 29.6589L46.8533 31.285C47.6442 29.9758 48.6702 28.9383 49.9421 28.1535L48.291 25.4775ZM44.1495 29.6797C43.1244 31.4371 42.6057 33.3405 42.6057 35.363H45.7502C45.7502 33.9033 46.118 32.5459 46.8656 31.2641L44.1495 29.6797ZM42.6057 35.363C42.6057 37.3856 43.1244 39.2889 44.1495 41.0463L46.8656 39.4619C46.118 38.1802 45.7502 36.8228 45.7502 35.363H42.6057ZM44.1696 41.0797C45.2209 42.7836 46.6211 44.1636 48.351 45.2088L49.9771 42.5174C48.6679 41.7265 47.6304 40.7005 46.8456 39.4286L44.1696 41.0797ZM48.3718 45.2212C50.1292 46.2463 52.0326 46.765 54.0551 46.765V43.6205C52.5954 43.6205 51.238 43.2527 49.9562 42.5051L48.3718 45.2212ZM72.3003 45.7626L71.6439 47.1912L71.66 47.1986L71.6763 47.2056L72.3003 45.7626ZM69.7835 43.7206H68.2113V44.1657L68.4445 44.5446L69.7835 43.7206ZM69.7835 41.2039L71.2216 40.5684L68.2113 41.2039H69.7835ZM72.2528 44.243L71.4088 45.5694L71.4233 45.5787L71.438 45.5876L72.2528 44.243ZM79.9931 43.7681L81.1049 44.8799L81.114 44.8708L81.1229 44.8615L79.9931 43.7681ZM80.6105 37.0251L79.3461 37.9596L79.3561 37.9731L79.3664 37.9864L80.6105 37.0251ZM77.9987 34.8407L78.8128 33.4957L78.7997 33.4877L78.7864 33.48L77.9987 34.8407ZM76.1942 33.796L75.3757 35.1383L75.391 35.1477L75.4065 35.1566L76.1942 33.796ZM73.2501 31.944L72.3067 33.2018L72.3416 33.228L72.3779 33.2522L73.2501 31.944ZM71.7305 30.377L70.4012 31.2165L70.4116 31.2329L70.4223 31.2491L71.7305 30.377ZM72.4903 25.2484L73.5135 26.4421L72.4903 25.2484ZM80.3255 25.2959H81.8978V24.4608L81.2058 23.9932L80.3255 25.2959ZM80.3255 27.3853L79.0714 28.3335L81.8978 32.0716V27.3853H80.3255ZM73.6299 26.1982L72.6478 24.9705L73.6299 26.1982ZM73.2501 29.9971L71.9656 30.9037L71.9787 30.9223L71.9923 30.9404L73.2501 29.9971ZM74.8171 31.4217L73.945 32.7298L73.9589 32.7391L73.973 32.7481L74.8171 31.4217ZM78.2361 33.4161L79.0133 32.0493L79.0043 32.0443L78.2361 33.4161ZM81.7976 36.2653L80.5544 37.2278L80.5621 37.2377L80.5699 37.2474L81.7976 36.2653ZM80.9903 44.7654L82.058 45.9195L82.0591 45.9185L80.9903 44.7654ZM76.3367 44.9501C74.9915 44.9501 73.8648 44.7262 72.9244 44.3195L71.6763 47.2056C73.0785 47.812 74.6427 48.0946 76.3367 48.0946V44.9501ZM72.9567 44.3339C71.9753 43.883 71.4201 43.3802 71.1225 42.8967L68.4445 44.5446C69.16 45.7073 70.2827 46.5658 71.6439 47.1912L72.9567 44.3339ZM71.3558 43.7206V41.2039H68.2113V43.7206H71.3558ZM68.3455 41.8393C69.0467 43.4264 70.0533 44.7068 71.4088 45.5694L73.0969 42.9166C72.363 42.4495 71.7234 41.7039 71.2216 40.5684L68.3455 41.8393ZM71.438 45.5876C72.7954 46.4103 74.4298 46.765 76.2417 46.765V43.6205C74.8245 43.6205 73.7997 43.3421 73.0677 42.8984L71.438 45.5876ZM76.2417 46.765C78.1399 46.765 79.8142 46.1705 81.1049 44.8799L78.8814 42.6564C78.2726 43.2652 77.4459 43.6205 76.2417 43.6205V46.765ZM81.1229 44.8615C82.3895 43.5527 82.9899 41.8942 82.9899 40.0167H79.8455C79.8455 41.1783 79.4963 42.0208 78.8633 42.6748L81.1229 44.8615ZM82.9899 40.0167C82.9899 38.5294 82.6855 37.139 81.8545 36.0637L79.3664 37.9864C79.6118 38.304 79.8455 38.9081 79.8455 40.0167H82.9899ZM81.8748 36.0905C81.1663 35.132 80.1046 34.2775 78.8128 33.4957L77.1846 36.1857C78.2988 36.8601 78.9782 37.4618 79.3461 37.9596L81.8748 36.0905ZM78.7864 33.48L76.982 32.4353L75.4065 35.1566L77.211 36.2013L78.7864 33.48ZM77.0127 32.4536C75.7198 31.6653 74.7601 31.0611 74.1222 30.6358L72.3779 33.2522C73.0697 33.7133 74.0727 34.3438 75.3757 35.1383L77.0127 32.4536ZM74.1934 30.6862C73.681 30.302 73.3056 29.9053 73.0387 29.5048L70.4223 31.2491C70.9151 31.9883 71.5528 32.6363 72.3067 33.2018L74.1934 30.6862ZM73.0598 29.5374C72.8561 29.2148 72.7329 28.8163 72.7329 28.2876H69.5884C69.5884 29.3417 69.8451 30.3361 70.4012 31.2165L73.0598 29.5374ZM72.7329 28.2876C72.7329 27.4363 73.0076 26.8758 73.5135 26.4421L71.4671 24.0547C70.2001 25.1407 69.5884 26.6062 69.5884 28.2876H72.7329ZM73.5135 26.4421C74.0558 25.9773 74.8215 25.681 75.9568 25.681V22.5365C74.2429 22.5365 72.6976 23 71.4671 24.0547L73.5135 26.4421ZM75.9568 25.681C77.4575 25.681 78.5886 26.0198 79.4453 26.5986L81.2058 23.9932C79.7198 22.9891 77.9384 22.5365 75.9568 22.5365V25.681ZM78.7533 25.2959V27.3853H81.8978V25.2959H78.7533ZM81.5796 26.4371C80.26 24.6918 78.3557 23.8661 76.0992 23.8661V27.0106C77.515 27.0106 78.4283 27.4829 79.0714 28.3335L81.5796 26.4371ZM76.0992 23.8661C74.8203 23.8661 73.6234 24.19 72.6478 24.9705L74.6121 27.4259C74.9028 27.1933 75.3521 27.0106 76.0992 27.0106V23.8661ZM72.6478 24.9705C71.6523 25.7668 71.108 26.8626 71.108 28.1451H74.2524C74.2524 27.8447 74.3413 27.6425 74.6121 27.4259L72.6478 24.9705ZM71.108 28.1451C71.108 29.1466 71.3874 30.0847 71.9656 30.9037L74.5345 29.0904C74.3529 28.8331 74.2524 28.5366 74.2524 28.1451H71.108ZM71.9923 30.9404C72.503 31.6213 73.169 32.2125 73.945 32.7298L75.6892 30.1135C75.1356 29.7444 74.7569 29.3859 74.5078 29.0537L71.9923 30.9404ZM73.973 32.7481C74.7095 33.2168 75.8822 33.8999 77.4679 34.7879L79.0043 32.0443C77.4243 31.1595 76.3176 30.513 75.6612 30.0952L73.973 32.7481ZM77.459 34.7828C78.9742 35.6444 79.9686 36.4711 80.5544 37.2278L83.0408 35.3028C82.107 34.0967 80.7271 33.0239 79.0133 32.0494L77.459 34.7828ZM80.5699 37.2474C81.0514 37.8493 81.3651 38.7226 81.3651 40.0167H84.5095C84.5095 38.2084 84.0634 36.5808 83.0253 35.2831L80.5699 37.2474ZM81.3651 40.0167C81.3651 41.5948 80.8616 42.741 79.9216 43.6122L82.0591 45.9185C83.715 44.3837 84.5095 42.3642 84.5095 40.0167H81.3651ZM79.9227 43.6112C78.9669 44.4954 77.805 44.9501 76.3367 44.9501V48.0946C78.5407 48.0946 80.4812 47.378 82.058 45.9195L79.9227 43.6112ZM92.0384 45.1452L91.2556 46.5088L91.2664 46.5149L92.0384 45.1452ZM87.9545 41.1089L89.3071 40.3074L87.9545 41.1089ZM87.9545 29.8071L89.3005 30.6198L89.3071 30.6086L87.9545 29.8071ZM92.0858 25.7233L91.3058 24.3582L91.2952 24.3643L92.0858 25.7233ZM102.485 25.0585L103.131 23.6247L102.485 25.0585ZM106.189 27.7177H107.762V27.0665L107.301 26.606L106.189 27.7177ZM106.189 30.282L104.885 31.1602L107.762 35.4311V30.282H106.189ZM102.675 26.768L101.818 28.0862L101.837 28.0986L101.857 28.1103L102.675 26.768ZM92.9881 26.9105L93.7803 28.2685L93.7889 28.2635L92.9881 26.9105ZM89.3316 30.5194L90.6773 31.3324L89.3316 30.5194ZM89.2841 40.5391L87.9261 41.3313L87.9297 41.3375L87.9334 41.3437L89.2841 40.5391ZM92.8456 44.0531L92.0625 45.4163L92.0795 45.4261L92.0968 45.4355L92.8456 44.0531ZM106.189 40.4916H107.762V35.2115L104.873 39.6315L106.189 40.4916ZM106.189 43.0558L107.331 44.1371L107.762 43.6823V43.0558H106.189ZM102.39 45.7626L102.997 47.2128L103.006 47.2095L103.014 47.206L102.39 45.7626ZM97.7367 45.0451C95.9411 45.0451 94.3087 44.6201 92.8103 43.7756L91.2664 46.5149C93.2503 47.6331 95.4169 48.1895 97.7367 48.1895V45.0451ZM92.8211 43.7817C91.3488 42.9365 90.183 41.7855 89.3071 40.3074L86.602 41.9104C87.7521 43.8513 89.3089 45.3912 91.2556 46.5088L92.8211 43.7817ZM89.3071 40.3074C88.4497 38.8606 88.0072 37.2105 88.0072 35.3156H84.8627C84.8627 37.726 85.4332 39.9382 86.602 41.9104L89.3071 40.3074ZM88.0072 35.3156C88.0072 33.6022 88.4382 32.0479 89.3005 30.6198L86.6086 28.9945C85.4448 30.9221 84.8627 33.04 84.8627 35.3156H88.0072ZM89.3071 30.6086C90.1815 29.1331 91.3638 27.9624 92.8765 27.0822L91.2952 24.3643C89.3256 25.5103 87.7537 27.0621 86.602 29.0056L89.3071 30.6086ZM92.8659 27.0884C94.3917 26.2164 96.0682 25.7759 97.9267 25.7759V22.6315C95.5431 22.6315 93.3256 23.204 91.3058 24.3582L92.8659 27.0884ZM97.9267 25.7759C99.5364 25.7759 100.825 26.0352 101.84 26.4922L103.131 23.6247C101.614 22.9421 99.8626 22.6315 97.9267 22.6315V25.7759ZM101.84 26.4922C102.899 26.9685 103.98 27.7318 105.078 28.8294L107.301 26.606C105.993 25.2976 104.605 24.2882 103.131 23.6247L101.84 26.4922ZM104.617 27.7177V30.282H107.762V27.7177H104.617ZM107.493 29.4037C106.351 27.7069 105.024 26.3589 103.494 25.4256L101.857 28.1103C102.922 28.76 103.939 29.7546 104.885 31.1602L107.493 29.4037ZM103.532 25.4498C101.952 24.4229 100.052 23.9611 97.9267 23.9611V27.1056C99.6001 27.1056 100.866 27.4669 101.818 28.0862L103.532 25.4498ZM97.9267 23.9611C95.8936 23.9611 93.9721 24.5012 92.1873 25.5574L93.7889 28.2635C95.1066 27.4836 96.4775 27.1056 97.9267 27.1056V23.9611ZM92.1959 25.5524C90.447 26.5726 89.0387 27.9639 87.9859 29.7064L90.6773 31.3324C91.4607 30.0358 92.4901 29.0211 93.7803 28.2685L92.1959 25.5524ZM87.9859 29.7064C86.9227 31.4662 86.3823 33.3769 86.3823 35.4105H89.5267C89.5267 33.9618 89.9044 32.6118 90.6773 31.3324L87.9859 29.7064ZM86.3823 35.4105C86.3823 37.5654 86.8883 39.5522 87.9261 41.3313L90.6422 39.7469C89.9072 38.4868 89.5267 37.0545 89.5267 35.4105H86.3823ZM87.9334 41.3437C88.9566 43.0612 90.3383 44.4259 92.0625 45.4163L93.6288 42.6898C92.3771 41.9707 91.3845 40.9927 90.6348 39.7344L87.9334 41.3437ZM92.0968 45.4355C93.8481 46.3841 95.7361 46.8599 97.7367 46.8599V43.7155C96.255 43.7155 94.8823 43.3682 93.5945 42.6706L92.0968 45.4355ZM97.7367 46.8599C101.86 46.8599 105.152 44.9525 107.505 41.3516L104.873 39.6315C103.047 42.4255 100.705 43.7155 97.7367 43.7155V46.8599ZM104.617 40.4916V43.0558H107.762V40.4916H104.617ZM105.048 41.9746C104.041 43.0374 102.947 43.8096 101.767 44.3192L103.014 47.206C104.619 46.5126 106.058 45.4803 107.331 44.1371L105.048 41.9746ZM101.783 44.3123C100.646 44.7885 99.3064 45.0451 97.7367 45.0451V48.1895C99.6495 48.1895 101.413 47.8763 102.997 47.2128L101.783 44.3123ZM110.393 10.3852V8.81295H108.82V10.3852H110.393ZM111.912 10.3852H113.484V8.81295H111.912V10.3852ZM111.912 29.0473H110.34L113.337 29.7122L111.912 29.0473ZM115.284 25.5333L116.073 26.8934L116.081 26.8885L115.284 25.5333ZM127.108 26.578L125.985 27.6789L125.991 27.6844L125.996 27.6898L127.108 26.578ZM129.577 46V47.5722H131.149V46H129.577ZM128.058 46H126.485V47.5722H128.058V46ZM125.968 27.5753L124.831 28.6614L124.844 28.6744L124.856 28.687L125.968 27.5753ZM115.996 26.5306L116.754 27.9082L116.767 27.901L116.78 27.8935L115.996 26.5306ZM113.004 29.4747L114.359 30.2734L114.363 30.2659L114.367 30.2584L113.004 29.4747ZM111.912 46V47.5722H113.484V46H111.912ZM110.393 46H108.82V47.5722H110.393V46ZM110.393 11.9574H111.912V8.81295H110.393V11.9574ZM110.34 10.3852V29.0473H113.484V10.3852H110.34ZM113.337 29.7122C113.845 28.6245 114.721 27.6774 116.073 26.8934L114.495 24.1733C112.681 25.2254 111.309 26.621 110.487 28.3825L113.337 29.7122ZM116.081 26.8885C117.488 26.0609 118.846 25.681 120.175 25.681V22.5365C118.211 22.5365 116.309 23.1063 114.487 24.1782L116.081 26.8885ZM120.175 25.681C122.894 25.681 124.749 26.4182 125.985 27.6789L128.23 25.4772C126.238 23.4455 123.47 22.5365 120.175 22.5365V25.681ZM125.996 27.6898C127.268 28.962 128.005 30.8409 128.005 33.5586H131.149C131.149 30.2612 130.24 27.4865 128.22 25.4663L125.996 27.6898ZM128.005 33.5586V46H131.149V33.5586H128.005ZM129.577 44.4278H128.058V47.5722H129.577V44.4278ZM129.63 46V33.5586H126.485V46H129.63ZM129.63 33.5586C129.63 30.6831 128.852 28.2361 127.08 26.4635L124.856 28.687C125.87 29.7003 126.485 31.2421 126.485 33.5586H129.63ZM127.105 26.4891C125.372 24.6755 122.983 23.8661 120.175 23.8661V27.0106C122.369 27.0106 123.842 27.6259 124.831 28.6614L127.105 26.4891ZM120.175 23.8661C118.392 23.8661 116.727 24.2967 115.212 25.1676L116.78 27.8935C117.798 27.3081 118.919 27.0106 120.175 27.0106V23.8661ZM115.238 25.153C113.717 25.9898 112.511 27.1779 111.641 28.691L114.367 30.2584C114.954 29.239 115.743 28.4643 116.754 27.9082L115.238 25.153ZM111.65 28.6761C110.774 30.1621 110.34 31.8009 110.34 33.5586H113.484C113.484 32.3404 113.779 31.2566 114.359 30.2734L111.65 28.6761ZM110.34 33.5586V46H113.484V33.5586H110.34ZM111.912 44.4278H110.393V47.5722H111.912V44.4278ZM111.965 46V10.3852H108.82V46H111.965ZM139.895 45.1927L139.068 46.5301L139.077 46.5355L139.086 46.5409L139.895 45.1927ZM135.811 40.9664L134.435 41.7279L134.441 41.7384L135.811 40.9664ZM135.811 29.5697L134.452 28.779L134.446 28.7883L134.441 28.7977L135.811 29.5697ZM139.895 25.4384L140.696 26.791L140.704 26.7865L139.895 25.4384ZM151.386 25.4384L150.567 26.7799L150.581 26.7888L150.596 26.7973L151.386 25.4384ZM155.518 41.0614L156.898 41.8143L156.904 41.8038L155.518 41.0614ZM151.529 45.2402L152.342 46.5862L152.349 46.5818L151.529 45.2402ZM150.674 44.0531L149.849 42.715L150.674 44.0531ZM154.141 40.3966L152.764 39.6378L152.758 39.6478L154.141 40.3966ZM154.141 30.282L155.518 29.5232L154.141 30.282ZM150.627 26.578L149.801 27.9161L150.627 26.578ZM140.702 26.6255L141.528 27.9636L141.535 27.9588L140.702 26.6255ZM137.14 30.3295L135.775 29.5494L135.769 29.56L135.763 29.5707L137.14 30.3295ZM137.14 40.3966L135.763 41.1554L135.773 41.1722L135.782 41.1888L137.14 40.3966ZM140.702 44.0531L139.876 45.3911L139.883 45.3949L139.889 45.3987L140.702 44.0531ZM145.736 45.1876C143.85 45.1876 142.186 44.7337 140.704 43.8446L139.086 46.5409C141.086 47.7411 143.316 48.332 145.736 48.332V45.1876ZM140.721 43.8554C139.2 42.9151 138.028 41.6986 137.18 40.1945L134.441 41.7384C135.556 43.7166 137.107 45.3176 139.068 46.5301L140.721 43.8554ZM137.186 40.205C136.336 38.669 135.911 37.0163 135.911 35.2206H132.767C132.767 37.5404 133.323 39.7183 134.435 41.7279L137.186 40.205ZM135.911 35.2206C135.911 33.4611 136.334 31.8439 137.18 30.3417L134.441 28.7977C133.325 30.7779 132.767 32.9279 132.767 35.2206H135.911ZM137.17 30.3604C138.05 28.8476 139.221 27.6653 140.696 26.7909L139.093 24.0858C137.15 25.2375 135.598 26.8094 134.452 28.779L137.17 30.3604ZM140.704 26.7865C142.189 25.8951 143.839 25.4435 145.688 25.4435V22.2991C143.295 22.2991 141.082 22.8922 139.086 24.0902L140.704 26.7865ZM145.688 25.4435C147.501 25.4435 149.115 25.8927 150.567 26.7799L152.206 24.0968C150.239 22.8946 148.054 22.2991 145.688 22.2991V25.4435ZM150.596 26.7973C152.097 27.6709 153.258 28.8462 154.101 30.3417L156.84 28.7977C155.72 26.8109 154.158 25.232 152.177 24.0794L150.596 26.7973ZM154.101 30.3417C154.947 31.8439 155.37 33.4611 155.37 35.2206H158.515C158.515 32.9279 157.956 30.7779 156.84 28.7977L154.101 30.3417ZM155.37 35.2206C155.37 37.0972 154.953 38.787 154.132 40.319L156.904 41.8038C157.982 39.7901 158.515 37.5861 158.515 35.2206H155.37ZM154.137 40.3085C153.321 41.8052 152.186 42.9962 150.709 43.8987L152.349 46.5818C154.291 45.3949 155.815 43.8 156.898 41.8143L154.137 40.3085ZM150.716 43.8943C149.311 44.7428 147.667 45.1876 145.736 45.1876V48.332C148.173 48.332 150.391 47.7637 152.341 46.5861L150.716 43.8943ZM145.736 47.0024C147.822 47.0024 149.755 46.4674 151.5 45.3911L149.849 42.715C148.617 43.4749 147.258 43.8579 145.736 43.8579V47.0024ZM151.5 45.3911C153.219 44.3304 154.567 42.9096 155.523 41.1454L152.758 39.6478C152.068 40.9227 151.105 41.9395 149.849 42.715L151.5 45.3911ZM155.518 41.1554C156.505 39.363 156.995 37.4069 156.995 35.3156H153.851C153.851 36.8965 153.486 38.3277 152.764 39.6378L155.518 41.1554ZM156.995 35.3156C156.995 33.2509 156.503 31.3114 155.518 29.5232L152.764 31.0407C153.488 32.355 153.851 33.7712 153.851 35.3156H156.995ZM155.518 29.5232C154.534 27.7379 153.174 26.3024 151.452 25.24L149.801 27.9161C151.055 28.6899 152.038 29.7237 152.764 31.0408L155.518 29.5232ZM151.452 25.24C149.708 24.1638 147.774 23.6287 145.688 23.6287V26.7732C147.211 26.7732 148.57 27.1562 149.801 27.9161L151.452 25.24ZM145.688 23.6287C143.591 23.6287 141.64 24.1852 139.869 25.2923L141.535 27.9588C142.803 27.1664 144.176 26.7732 145.688 26.7732V23.6287ZM139.876 25.2875C138.16 26.3467 136.789 27.7753 135.775 29.5494L138.506 31.1095C139.265 29.7812 140.268 28.7405 141.528 27.9635L139.876 25.2875ZM135.763 29.5707C134.778 31.3589 134.286 33.2984 134.286 35.363H137.431C137.431 33.8187 137.793 32.4025 138.517 31.0882L135.763 29.5707ZM134.286 35.363C134.286 37.4276 134.778 39.3672 135.763 41.1554L138.517 39.6378C137.793 38.3235 137.431 36.9074 137.431 35.363H134.286ZM135.782 41.1888C136.798 42.9298 138.167 44.3366 139.876 45.3911L141.528 42.715C140.261 41.9333 139.256 40.9025 138.499 39.6044L135.782 41.1888ZM139.889 45.3987C141.662 46.4702 143.623 47.0024 145.736 47.0024V43.8579C144.176 43.8579 142.781 43.472 141.515 42.7074L139.889 45.3987ZM166.003 45.1927L165.176 46.5301L165.185 46.5355L165.194 46.5409L166.003 45.1927ZM161.919 40.9664L160.544 41.7279L160.549 41.7384L161.919 40.9664ZM161.919 29.5697L160.56 28.779L160.555 28.7883L160.549 28.7977L161.919 29.5697ZM166.003 25.4384L166.804 26.791L166.812 26.7865L166.003 25.4384ZM177.495 25.4384L176.675 26.7799L176.689 26.7888L176.704 26.7973L177.495 25.4384ZM181.626 41.0614L183.006 41.8143L183.012 41.8038L181.626 41.0614ZM177.637 45.2402L178.45 46.5862L178.457 46.5818L177.637 45.2402ZM176.782 44.0531L175.957 42.715L176.782 44.0531ZM180.249 40.3966L178.872 39.6378L178.866 39.6478L180.249 40.3966ZM180.249 30.282L181.626 29.5232L180.249 30.282ZM176.735 26.578L175.909 27.9161L176.735 26.578ZM166.81 26.6255L167.636 27.9636L167.643 27.9588L166.81 26.6255ZM163.249 30.3295L161.884 29.5494L161.878 29.56L161.872 29.5707L163.249 30.3295ZM163.249 40.3966L161.872 41.1554L161.881 41.1722L161.891 41.1888L163.249 40.3966ZM166.81 44.0531L165.985 45.3911L165.991 45.3949L165.997 45.3987L166.81 44.0531ZM171.844 45.1876C169.958 45.1876 168.294 44.7337 166.812 43.8446L165.194 46.5409C167.194 47.7411 169.424 48.332 171.844 48.332V45.1876ZM166.83 43.8554C165.309 42.9151 164.137 41.6986 163.289 40.1945L160.549 41.7384C161.664 43.7166 163.215 45.3176 165.176 46.5301L166.83 43.8554ZM163.295 40.205C162.444 38.669 162.019 37.0163 162.019 35.2206H158.875C158.875 37.5404 159.431 39.7183 160.544 41.7279L163.295 40.205ZM162.019 35.2206C162.019 33.4611 162.442 31.8439 163.289 30.3417L160.549 28.7977C159.433 30.7779 158.875 32.9279 158.875 35.2206H162.019ZM163.278 30.3604C164.158 28.8476 165.329 27.6653 166.804 26.7909L165.201 24.0858C163.258 25.2375 161.706 26.8094 160.56 28.779L163.278 30.3604ZM166.812 26.7865C168.298 25.8951 169.947 25.4435 171.796 25.4435V22.2991C169.404 22.2991 167.191 22.8922 165.194 24.0902L166.812 26.7865ZM171.796 25.4435C173.609 25.4435 175.223 25.8927 176.675 26.7799L178.314 24.0968C176.347 22.8946 174.162 22.2991 171.796 22.2991V25.4435ZM176.704 26.7973C178.205 27.6709 179.366 28.8462 180.209 30.3417L182.948 28.7977C181.828 26.8109 180.266 25.232 178.285 24.0794L176.704 26.7973ZM180.209 30.3417C181.056 31.8439 181.478 33.4611 181.478 35.2206H184.623C184.623 32.9279 184.064 30.7779 182.948 28.7977L180.209 30.3417ZM181.478 35.2206C181.478 37.0972 181.061 38.787 180.24 40.319L183.012 41.8038C184.091 39.7901 184.623 37.5861 184.623 35.2206H181.478ZM180.246 40.3085C179.429 41.8052 178.294 42.9962 176.817 43.8987L178.457 46.5818C180.399 45.3949 181.923 43.8 183.006 41.8143L180.246 40.3085ZM176.824 43.8943C175.419 44.7428 173.775 45.1876 171.844 45.1876V48.332C174.281 48.332 176.499 47.7637 178.45 46.5861L176.824 43.8943ZM171.844 47.0024C173.93 47.0024 175.864 46.4674 177.608 45.3911L175.957 42.715C174.725 43.4749 173.367 43.8579 171.844 43.8579V47.0024ZM177.608 45.3911C179.327 44.3304 180.676 42.9096 181.631 41.1454L178.866 39.6478C178.176 40.9227 177.214 41.9395 175.957 42.715L177.608 45.3911ZM181.626 41.1554C182.613 39.363 183.103 37.4069 183.103 35.3156H179.959C179.959 36.8965 179.594 38.3277 178.872 39.6378L181.626 41.1554ZM183.103 35.3156C183.103 33.2509 182.611 31.3114 181.626 29.5232L178.872 31.0407C179.596 32.355 179.959 33.7712 179.959 35.3156H183.103ZM181.626 29.5232C180.642 27.7379 179.282 26.3024 177.56 25.24L175.909 27.9161C177.163 28.6899 178.146 29.7237 178.872 31.0408L181.626 29.5232ZM177.56 25.24C175.816 24.1638 173.883 23.6287 171.796 23.6287V26.7732C173.319 26.7732 174.678 27.1562 175.909 27.9161L177.56 25.24ZM171.796 23.6287C169.699 23.6287 167.748 24.1852 165.977 25.2923L167.643 27.9588C168.911 27.1664 170.284 26.7732 171.796 26.7732V23.6287ZM165.985 25.2875C164.268 26.3467 162.897 27.7753 161.884 29.5494L164.614 31.1095C165.373 29.7812 166.377 28.7405 167.636 27.9635L165.985 25.2875ZM161.872 29.5707C160.886 31.3589 160.394 33.2984 160.394 35.363H163.539C163.539 33.8187 163.902 32.4025 164.626 31.0882L161.872 29.5707ZM160.394 35.363C160.394 37.4276 160.886 39.3672 161.872 41.1554L164.626 39.6378C163.902 38.3235 163.539 36.9074 163.539 35.363H160.394ZM161.891 41.1888C162.906 42.9298 164.276 44.3366 165.985 45.3911L167.636 42.715C166.369 41.9333 165.364 40.9025 164.607 39.6044L161.891 41.1888ZM165.997 45.3987C167.771 46.4702 169.731 47.0024 171.844 47.0024V43.8579C170.284 43.8579 168.889 43.472 167.623 42.7074L165.997 45.3987ZM195.91 46.4274V47.9996H197.482V46.4274H195.91ZM191.826 45.4302L191.054 46.7995L191.067 46.8071L191.081 46.8145L191.826 45.4302ZM188.882 42.5335L190.236 41.7348L188.882 42.5335ZM187.79 10.3852V8.81295H186.218V10.3852H187.79ZM189.31 10.3852H190.882V8.81295H189.31V10.3852ZM190.164 41.8212L188.794 42.592L188.803 42.608L188.812 42.6239L190.164 41.8212ZM192.586 44.243L191.783 45.5949L191.799 45.6043L191.815 45.6133L192.586 44.243ZM195.91 45.0978H197.482V43.5255H195.91V45.0978ZM195.91 44.8552C194.666 44.8552 193.563 44.5798 192.572 44.0459L191.081 46.8145C192.559 47.6102 194.178 47.9996 195.91 47.9996V44.8552ZM192.599 44.0608C191.608 43.5017 190.826 42.7342 190.236 41.7348L187.528 43.3322C188.395 44.8021 189.576 45.9657 191.054 46.7995L192.599 44.0608ZM190.236 41.7348C189.66 40.7568 189.362 39.6584 189.362 38.4022H186.218C186.218 40.1851 186.648 41.8408 187.528 43.3322L190.236 41.7348ZM189.362 38.4022V10.3852H186.218V38.4022H189.362ZM187.79 11.9574H189.31V8.81295H187.79V11.9574ZM187.737 10.3852V38.4022H190.882V10.3852H187.737ZM187.737 38.4022C187.737 39.9137 188.08 41.3229 188.794 42.592L191.535 41.0504C191.109 40.2934 190.882 39.4233 190.882 38.4022H187.737ZM188.812 42.6239C189.548 43.863 190.544 44.8591 191.783 45.5949L193.389 42.8911C192.602 42.4239 191.983 41.8054 191.516 41.0185L188.812 42.6239ZM191.815 45.6133C193.072 46.3203 194.447 46.67 195.91 46.67V43.5255C194.967 43.5255 194.126 43.3054 193.357 42.8727L191.815 45.6133ZM194.338 45.0978V46.4274H197.482V45.0978H194.338ZM203.752 45.0028L202.951 46.3554L202.961 46.3617L203.752 45.0028ZM199.668 40.9189L201.021 40.1174L199.668 40.9189ZM199.668 29.7122L198.316 28.9106L199.668 29.7122ZM203.752 25.6283L202.961 24.2693L202.951 24.2757L203.752 25.6283ZM215.149 25.7233L214.343 27.0735L214.352 27.0788L214.361 27.0839L215.149 25.7233ZM219.138 29.8546L217.731 30.5577L220.71 29.8546H219.138ZM219.138 10.3852V8.81295H217.565V10.3852H219.138ZM220.657 10.3852H222.229V8.81295H220.657V10.3852ZM220.657 46V47.5722H222.229V46H220.657ZM219.138 46H217.565V47.5722H219.138V46ZM219.138 40.824H220.71V34.7566L217.763 40.0604L219.138 40.824ZM215.006 44.9553L214.219 43.5946L214.208 43.6008L215.006 44.9553ZM214.247 43.8631L215.051 45.2138L215.06 45.2088L214.247 43.8631ZM217.856 40.2541L216.51 39.4411L216.505 39.4495L217.856 40.2541ZM217.856 30.4719L216.497 31.2641L216.504 31.2746L216.51 31.285L217.856 30.4719ZM214.247 26.8155L213.421 28.1535L213.427 28.1574L213.434 28.1612L214.247 26.8155ZM204.559 26.8155L205.364 28.1662L205.375 28.1599L205.385 28.1535L204.559 26.8155ZM200.95 40.2541L199.58 41.0249L199.59 41.042L199.6 41.0588L200.95 40.2541ZM204.512 43.8631L203.686 45.2011L203.703 45.2114L203.72 45.2212L204.512 43.8631ZM209.45 44.9501C207.664 44.9501 206.038 44.5141 204.543 43.6438L202.961 46.3617C204.948 47.5176 207.121 48.0946 209.45 48.0946V44.9501ZM204.554 43.6502C203.071 42.7717 201.899 41.5999 201.021 40.1174L198.316 41.7205C199.463 43.657 201.014 45.2078 202.951 46.3554L204.554 43.6502ZM201.021 40.1174C200.154 38.6555 199.721 37.0654 199.721 35.3156H196.576C196.576 37.6179 197.156 39.7634 198.316 41.7205L201.021 40.1174ZM199.721 35.3156C199.721 33.5657 200.154 31.9756 201.021 30.5137L198.316 28.9106C197.156 30.8677 196.576 33.0132 196.576 35.3156H199.721ZM201.021 30.5137C201.899 29.0312 203.071 27.8594 204.554 26.9809L202.951 24.2757C201.014 25.4233 199.463 26.9741 198.316 28.9106L201.021 30.5137ZM204.543 26.9873C206.038 26.117 207.664 25.681 209.45 25.681V22.5365C207.121 22.5365 204.948 23.1135 202.961 24.2694L204.543 26.9873ZM209.45 25.681C211.146 25.681 212.769 26.1344 214.343 27.0735L215.954 24.373C213.92 23.1595 211.744 22.5365 209.45 22.5365V25.681ZM214.361 27.0839C215.925 27.9892 217.027 29.1481 217.731 30.5577L220.544 29.1515C219.539 27.1421 217.982 25.5468 215.937 24.3626L214.361 27.0839ZM220.71 29.8546V10.3852H217.565V29.8546H220.71ZM219.138 11.9574H220.657V8.81295H219.138V11.9574ZM219.085 10.3852V46H222.229V10.3852H219.085ZM220.657 44.4278H219.138V47.5722H220.657V44.4278ZM220.71 46V40.824H217.565V46H220.71ZM217.763 40.0604C216.961 41.505 215.794 42.6825 214.219 43.5947L215.794 46.3159C217.828 45.1387 219.415 43.562 220.512 41.5875L217.763 40.0604ZM214.208 43.6008C212.661 44.5126 211.082 44.9501 209.45 44.9501V48.0946C211.681 48.0946 213.806 47.4874 215.805 46.3098L214.208 43.6008ZM209.403 46.765C211.426 46.765 213.319 46.246 215.051 45.2138L213.442 42.5124C212.199 43.253 210.862 43.6205 209.403 43.6205V46.765ZM215.06 45.2088C216.794 44.1607 218.184 42.7742 219.206 41.0588L216.505 39.4495C215.754 40.7099 214.738 41.7293 213.434 42.5174L215.06 45.2088ZM219.201 41.0672C220.264 39.3074 220.805 37.3967 220.805 35.363H217.66C217.66 36.8117 217.283 38.1618 216.51 39.4411L219.201 41.0672ZM220.805 35.363C220.805 33.3294 220.264 31.4187 219.201 29.6589L216.51 31.285C217.283 32.5643 217.66 33.9143 217.66 35.363H220.805ZM219.214 29.6797C218.193 27.9308 216.802 26.5226 215.06 25.4698L213.434 28.1612C214.73 28.9445 215.745 29.9739 216.497 31.2641L219.214 29.6797ZM215.072 25.4775C213.337 24.4069 211.437 23.8661 209.403 23.8661V27.0106C210.851 27.0106 212.18 27.3879 213.421 28.1535L215.072 25.4775ZM209.403 23.8661C207.369 23.8661 205.469 24.4069 203.734 25.4775L205.385 28.1535C206.626 27.3879 207.955 27.0106 209.403 27.0106V23.8661ZM203.755 25.4648C202.034 26.4897 200.658 27.8864 199.64 29.6322L202.356 31.2166C203.11 29.9233 204.109 28.9141 205.364 28.1662L203.755 25.4648ZM199.64 29.6322C198.615 31.3896 198.096 33.293 198.096 35.3156H201.24C201.24 33.8558 201.608 32.4984 202.356 31.2166L199.64 29.6322ZM198.096 35.3156C198.096 37.3536 198.591 39.2659 199.58 41.0249L202.321 39.4833C201.601 38.2032 201.24 36.8231 201.24 35.3156H198.096ZM199.6 41.0588C200.617 42.7663 201.985 44.1515 203.686 45.2011L205.337 42.5251C204.063 41.7386 203.057 40.7178 202.301 39.4495L199.6 41.0588ZM203.72 45.2212C205.477 46.2463 207.38 46.765 209.403 46.765V43.6205C207.943 43.6205 206.586 43.2527 205.304 42.5051L203.72 45.2212ZM241.752 43.9581L240.968 42.5948L241.752 43.9581ZM245.456 40.4441H247.028V35.2049L244.143 39.5784L245.456 40.4441ZM245.456 42.8659L246.623 43.9192L247.028 43.4704V42.8659H245.456ZM241.609 45.7151L242.204 47.1702L242.218 47.1645L242.232 47.1585L241.609 45.7151ZM231.305 45.0028L230.485 46.3444L230.496 46.351L231.305 45.0028ZM227.173 40.824L225.814 41.6146L225.82 41.6238L225.825 41.6329L227.173 40.824ZM227.173 29.5697L228.519 30.3824L228.526 30.3712L227.173 29.5697ZM231.305 25.5808L230.562 24.1949L230.552 24.2006L231.305 25.5808ZM245.598 28.0501L246.703 29.169L247.765 28.1199L246.772 27.0047L245.598 28.0501ZM230.687 42.7709L229.583 41.6521L228.338 42.8805L229.692 43.9878L230.687 42.7709ZM233.726 44.6704L233.118 46.1203L233.138 46.1287L233.159 46.1366L233.726 44.6704ZM229.785 41.8687L228.635 42.9407L229.742 44.1278L230.893 42.9842L229.785 41.8687ZM243.699 28.0501L244.806 29.1657L246 27.9799L244.736 26.8691L243.699 28.0501ZM240.659 26.1032L240.051 27.5531L240.072 27.5615L240.092 27.5694L240.659 26.1032ZM231.969 26.768L232.73 28.1438L232.74 28.1383L231.969 26.768ZM237.05 46.8124C238.983 46.8124 240.819 46.307 242.535 45.3214L240.968 42.5948C239.708 43.3187 238.41 43.668 237.05 43.668V46.8124ZM242.535 45.3214C244.244 44.3395 245.657 42.9944 246.768 41.3097L244.143 39.5784C243.291 40.8696 242.235 41.8671 240.968 42.5948L242.535 45.3214ZM243.883 40.4441V42.8659H247.028V40.4441H243.883ZM244.288 41.8126C243.245 42.9684 242.142 43.7723 240.986 44.2717L242.232 47.1585C243.862 46.4549 245.323 45.3593 246.623 43.9192L244.288 41.8126ZM241.014 44.2599C239.84 44.74 238.465 44.9976 236.861 44.9976V48.1421C238.802 48.1421 240.592 47.8298 242.204 47.1702L241.014 44.2599ZM236.861 44.9976C235.193 44.9976 233.619 44.558 232.113 43.6546L230.496 46.351C232.472 47.537 234.603 48.1421 236.861 48.1421V44.9976ZM232.124 43.6612C230.634 42.7507 229.437 41.5417 228.521 40.0151L225.825 41.6329C226.999 43.5886 228.556 45.1655 230.485 46.3443L232.124 43.6612ZM228.532 40.0333C227.655 38.5256 227.226 36.9455 227.226 35.2681H224.081C224.081 37.5162 224.665 39.64 225.814 41.6146L228.532 40.0333ZM227.226 35.2681C227.226 33.409 227.666 31.7949 228.519 30.3823L225.827 28.7571C224.654 30.7002 224.081 32.885 224.081 35.2681H227.226ZM228.526 30.3712C229.395 28.9046 230.565 27.7751 232.057 26.9611L230.552 24.2006C228.562 25.286 226.978 26.8158 225.821 28.7682L228.526 30.3712ZM232.047 26.9667C233.576 26.1479 235.28 25.7285 237.193 25.7285V22.584C234.8 22.584 232.579 23.1143 230.562 24.1949L232.047 26.9667ZM237.193 25.7285C240.009 25.7285 242.392 26.8136 244.424 29.0955L246.772 27.0047C244.182 24.0948 240.961 22.584 237.193 22.584V25.7285ZM244.493 26.9313L229.583 41.6521L231.792 43.8898L246.703 29.169L244.493 26.9313ZM229.692 43.9878C230.824 44.914 231.966 45.6369 233.118 46.1203L234.334 43.2205C233.524 42.8808 232.64 42.3373 231.683 41.5541L229.692 43.9878ZM233.159 46.1366C234.35 46.5976 235.655 46.8124 237.05 46.8124V43.668C235.977 43.668 235.066 43.503 234.294 43.2042L233.159 46.1366ZM225.601 35.1256C225.601 38.1383 226.614 40.7727 228.635 42.9407L230.935 40.7966C229.474 39.2291 228.745 37.3681 228.745 35.1256H225.601ZM230.893 42.9842L244.806 29.1657L242.591 26.9346L228.677 40.7532L230.893 42.9842ZM244.736 26.8691C243.595 25.8661 242.426 25.1012 241.227 24.637L240.092 27.5694C240.855 27.865 241.713 28.398 242.661 29.2311L244.736 26.8691ZM241.267 24.6533C240.048 24.1419 238.66 23.9136 237.145 23.9136V27.0581C238.354 27.0581 239.308 27.2414 240.051 27.5531L241.267 24.6533ZM237.145 23.9136C234.974 23.9136 232.978 24.3967 231.199 25.3977L232.74 28.1383C234 27.4298 235.455 27.0581 237.145 27.0581V23.9136ZM231.208 25.3922C229.476 26.3508 228.098 27.69 227.099 29.3912L229.811 30.9829C230.522 29.7715 231.487 28.8314 232.73 28.1437L231.208 25.3922ZM227.099 29.3912C226.091 31.1096 225.601 33.0349 225.601 35.1256H228.745C228.745 33.544 229.11 32.1769 229.811 30.9829L227.099 29.3912ZM251.487 45.7626L250.831 47.1912L250.847 47.1986L250.863 47.2056L251.487 45.7626ZM248.971 43.7206H247.398V44.1657L247.632 44.5446L248.971 43.7206ZM248.971 41.2039L250.409 40.5684L247.398 41.2039H248.971ZM251.44 44.243L250.596 45.5694L250.61 45.5787L250.625 45.5876L251.44 44.243ZM259.18 43.7681L260.292 44.8799L260.301 44.8708L260.31 44.8615L259.18 43.7681ZM259.798 37.0251L258.533 37.9596L258.543 37.9731L258.553 37.9864L259.798 37.0251ZM257.186 34.8407L258 33.4957L257.987 33.4877L257.974 33.48L257.186 34.8407ZM255.381 33.796L254.563 35.1383L254.578 35.1477L254.594 35.1566L255.381 33.796ZM252.437 31.944L251.494 33.2018L251.529 33.228L251.565 33.2522L252.437 31.944ZM250.918 30.377L249.588 31.2165L249.599 31.2329L249.609 31.2491L250.918 30.377ZM251.677 25.2484L252.701 26.4421L251.677 25.2484ZM259.513 25.2959H261.085V24.4608L260.393 23.9932L259.513 25.2959ZM259.513 27.3853L258.259 28.3335L261.085 32.0716V27.3853H259.513ZM252.817 26.1982L251.835 24.9705L252.817 26.1982ZM252.437 29.9971L251.153 30.9037L251.166 30.9223L251.179 30.9404L252.437 29.9971ZM254.004 31.4217L253.132 32.7298L253.146 32.7391L253.16 32.7481L254.004 31.4217ZM257.423 33.4161L258.2 32.0493L258.191 32.0443L257.423 33.4161ZM260.985 36.2653L259.742 37.2278L259.749 37.2377L259.757 37.2474L260.985 36.2653ZM260.177 44.7654L261.245 45.9195L261.246 45.9185L260.177 44.7654ZM255.524 44.9501C254.179 44.9501 253.052 44.7262 252.111 44.3195L250.863 47.2056C252.266 47.812 253.83 48.0946 255.524 48.0946V44.9501ZM252.144 44.3339C251.162 43.883 250.607 43.3802 250.31 42.8967L247.632 44.5446C248.347 45.7073 249.47 46.5658 250.831 47.1912L252.144 44.3339ZM250.543 43.7206V41.2039H247.398V43.7206H250.543ZM247.533 41.8393C248.234 43.4264 249.24 44.7068 250.596 45.5694L252.284 42.9166C251.55 42.4495 250.91 41.7039 250.409 40.5684L247.533 41.8393ZM250.625 45.5876C251.983 46.4103 253.617 46.765 255.429 46.765V43.6205C254.012 43.6205 252.987 43.3421 252.255 42.8984L250.625 45.5876ZM255.429 46.765C257.327 46.765 259.001 46.1705 260.292 44.8799L258.069 42.6564C257.46 43.2652 256.633 43.6205 255.429 43.6205V46.765ZM260.31 44.8615C261.577 43.5527 262.177 41.8942 262.177 40.0167H259.033C259.033 41.1783 258.683 42.0208 258.05 42.6748L260.31 44.8615ZM262.177 40.0167C262.177 38.5294 261.873 37.139 261.042 36.0637L258.553 37.9864C258.799 38.304 259.033 38.9081 259.033 40.0167H262.177ZM261.062 36.0905C260.353 35.132 259.292 34.2775 258 33.4957L256.372 36.1857C257.486 36.8601 258.165 37.4618 258.533 37.9596L261.062 36.0905ZM257.974 33.48L256.169 32.4353L254.594 35.1566L256.398 36.2013L257.974 33.48ZM256.2 32.4536C254.907 31.6653 253.947 31.0611 253.309 30.6358L251.565 33.2522C252.257 33.7133 253.26 34.3438 254.563 35.1383L256.2 32.4536ZM253.381 30.6862C252.868 30.302 252.493 29.9053 252.226 29.5048L249.609 31.2491C250.102 31.9883 250.74 32.6363 251.494 33.2018L253.381 30.6862ZM252.247 29.5374C252.043 29.2148 251.92 28.8163 251.92 28.2876H248.776C248.776 29.3417 249.032 30.3361 249.588 31.2165L252.247 29.5374ZM251.92 28.2876C251.92 27.4363 252.195 26.8758 252.701 26.4421L250.654 24.0547C249.387 25.1407 248.776 26.6062 248.776 28.2876H251.92ZM252.701 26.4421C253.243 25.9773 254.009 25.681 255.144 25.681V22.5365C253.43 22.5365 251.885 23 250.654 24.0547L252.701 26.4421ZM255.144 25.681C256.645 25.681 257.776 26.0198 258.632 26.5986L260.393 23.9932C258.907 22.9891 257.126 22.5365 255.144 22.5365V25.681ZM257.94 25.2959V27.3853H261.085V25.2959H257.94ZM260.767 26.4371C259.447 24.6918 257.543 23.8661 255.286 23.8661V27.0106C256.702 27.0106 257.615 27.4829 258.259 28.3335L260.767 26.4371ZM255.286 23.8661C254.007 23.8661 252.811 24.19 251.835 24.9705L253.799 27.4259C254.09 27.1933 254.539 27.0106 255.286 27.0106V23.8661ZM251.835 24.9705C250.839 25.7668 250.295 26.8626 250.295 28.1451H253.44C253.44 27.8447 253.528 27.6425 253.799 27.4259L251.835 24.9705ZM250.295 28.1451C250.295 29.1466 250.575 30.0847 251.153 30.9037L253.722 29.0904C253.54 28.8331 253.44 28.5366 253.44 28.1451H250.295ZM251.179 30.9404C251.69 31.6213 252.356 32.2125 253.132 32.7298L254.876 30.1135C254.323 29.7444 253.944 29.3859 253.695 29.0537L251.179 30.9404ZM253.16 32.7481C253.897 33.2168 255.069 33.8999 256.655 34.7879L258.191 32.0443C256.611 31.1595 255.505 30.513 254.848 30.0952L253.16 32.7481ZM256.646 34.7828C258.161 35.6444 259.156 36.4711 259.742 37.2278L262.228 35.3028C261.294 34.0967 259.914 33.0239 258.2 32.0494L256.646 34.7828ZM259.757 37.2474C260.238 37.8493 260.552 38.7226 260.552 40.0167H263.697C263.697 38.2084 263.251 36.5808 262.212 35.2831L259.757 37.2474ZM260.552 40.0167C260.552 41.5948 260.049 42.741 259.109 43.6122L261.246 45.9185C262.902 44.3837 263.697 42.3642 263.697 40.0167H260.552ZM259.11 43.6112C258.154 44.4954 256.992 44.9501 255.524 44.9501V48.0946C257.728 48.0946 259.668 47.378 261.245 45.9195L259.11 43.6112ZM266.857 10.4801V8.90792H265.285V10.4801H266.857ZM268.376 10.4801H269.949V8.90792H268.376V10.4801ZM268.376 32.039H266.804V35.5075L269.413 33.2214L268.376 32.039ZM276.829 24.6311V23.0589H276.237L275.793 23.4487L276.829 24.6311ZM278.776 24.6311L279.81 25.815L282.965 23.0589H278.776V24.6311ZM268.994 33.1787L267.959 31.9947L266.721 33.0764L267.857 34.2648L268.994 33.1787ZM281.245 46V47.5722H284.922L282.382 44.9138L281.245 46ZM279.203 46L278.063 47.0829L278.528 47.5722H279.203V46ZM268.376 34.6033L269.516 33.5204L266.804 30.6656V34.6033H268.376ZM268.376 46V47.5722H269.949V46H268.376ZM266.857 46H265.285V47.5722H266.857V46ZM266.857 12.0524H268.376V8.90792H266.857V12.0524ZM266.804 10.4801V32.039H269.949V10.4801H266.804ZM269.413 33.2214L277.865 25.8135L275.793 23.4487L267.34 30.8566L269.413 33.2214ZM276.829 26.2033H278.776V23.0589H276.829V26.2033ZM277.741 23.4472L267.959 31.9947L270.028 34.3626L279.81 25.815L277.741 23.4472ZM267.857 34.2648L280.108 47.0862L282.382 44.9138L270.13 32.0925L267.857 34.2648ZM281.245 44.4278H279.203V47.5722H281.245V44.4278ZM280.343 44.9171L269.516 33.5204L267.236 35.6861L278.063 47.0829L280.343 44.9171ZM266.804 34.6033V46H269.949V34.6033H266.804ZM268.376 44.4278H266.857V47.5722H268.376V44.4278ZM268.429 46V10.4801H265.285V46H268.429Z" fill="#022B69"/>
</g>
<path d="M182.378 48.7389C163.348 66.569 153.005 67.0918 135.211 48.7389" stroke="#E05A5A" stroke-width="4.71667"/>
<circle cx="145.431" cy="35.3749" r="3.93056" fill="#FFC33B"/>
<circle cx="172.158" cy="35.3749" r="3.93056" fill="#8456CC"/>
</svg>
